# 3ds Max Wavefront OBJ Exporter v0.99 - (c)2007 guruware
# File Created: 13.12.2024 23:08:07

mtllib krzeslo.mtl

#
# object Box009
#

v  -1.3187 0.0000 1.6743
v  -1.3972 0.0000 1.1162
v  -1.1705 0.0000 1.1162
v  -1.1705 0.0000 1.6743
v  -0.5853 0.0000 1.1162
v  -0.5853 0.0000 1.6743
v  0.0000 0.0000 1.1162
v  0.0000 0.0000 1.6743
v  0.6086 0.0000 1.1162
v  0.6086 0.0000 1.6743
v  1.1939 0.0000 1.1162
v  1.1939 0.0000 1.6743
v  1.7791 0.0000 1.1162
v  1.6238 0.0000 1.5688
v  -1.3972 0.0000 0.5581
v  -1.1705 0.0000 0.5581
v  -1.4359 -3.7411 1.2697
v  -1.4359 -3.7411 0.8516
v  -0.9981 -3.7411 0.8516
v  -0.9981 -3.7411 1.2697
v  -0.5853 0.0000 0.5581
v  0.0000 0.0000 0.5581
v  0.6086 0.0000 0.5581
v  0.9265 -3.7411 1.2830
v  0.9265 -3.7411 0.8649
v  1.3643 -3.7411 0.8649
v  1.3643 -3.7411 1.2830
v  1.1939 0.0000 0.5581
v  1.7791 0.0000 0.5581
v  -1.3972 0.0000 -0.0000
v  -1.1705 0.0000 -0.0000
v  -0.5853 0.0000 -0.0000
v  0.0000 0.0000 -0.0000
v  0.6086 0.0000 -0.0000
v  1.1939 0.0000 -0.0000
v  1.7791 0.0000 -0.0000
v  -1.3972 0.0000 -0.5581
v  -1.1705 0.0000 -0.5581
v  -0.5853 0.0000 -0.5581
v  0.0000 0.0000 -0.5581
v  0.6086 0.0000 -0.5581
v  1.1939 0.0000 -0.5581
v  1.7791 0.0000 -0.5581
v  -1.3972 0.0000 -1.1162
v  -1.1705 0.0000 -1.1162
v  -1.4297 -3.7411 -0.8319
v  -1.4297 -3.7411 -1.2382
v  -1.0043 -3.7411 -1.2382
v  -1.0043 -3.7411 -0.8042
v  -0.5853 0.0000 -1.1162
v  0.0000 0.0000 -1.1162
v  0.6086 0.0000 -1.1162
v  0.9265 -3.7411 -0.7968
v  0.9265 -3.7411 -1.2149
v  1.3643 -3.7411 -1.2149
v  1.3643 -3.7411 -0.7968
v  1.1939 0.0000 -1.1162
v  1.7791 0.0000 -1.1162
v  -1.3141 0.0000 -1.6743
v  -1.1705 0.0000 -1.6743
v  -0.5853 0.0000 -1.6743
v  0.0000 0.0000 -1.6743
v  0.6086 0.0000 -1.6743
v  1.1939 0.0000 -1.6743
v  1.6351 0.0000 -1.5425
v  -1.3187 0.4940 1.6743
v  -1.1705 0.4940 1.6743
v  -1.1705 0.4940 1.1162
v  -1.3972 0.4940 1.1162
v  -0.5853 0.4940 1.6743
v  -0.5853 0.4940 1.1162
v  0.0000 0.4940 1.6743
v  0.0000 0.4940 1.1162
v  0.6086 0.4940 1.6743
v  0.6086 0.4940 1.1162
v  1.1939 0.4940 1.6743
v  1.1939 0.4940 1.1162
v  1.6238 0.4940 1.5688
v  1.7791 0.4940 1.1162
v  -1.1705 0.4940 0.5581
v  -1.3972 0.4940 0.5581
v  -0.5853 0.4940 0.5581
v  0.0000 0.4940 0.5581
v  0.6086 0.4940 0.5581
v  1.1939 0.4940 0.5581
v  1.7791 0.4940 0.5581
v  -1.1705 0.4940 -0.0000
v  -1.3972 0.4940 -0.0000
v  -0.5853 0.4940 -0.0000
v  0.0000 0.4940 -0.0000
v  0.6086 0.4940 -0.0000
v  1.1939 0.4940 -0.0000
v  1.7791 0.4940 -0.0000
v  -1.1705 0.4940 -0.5581
v  -1.3972 0.4940 -0.5581
v  -0.5853 0.4940 -0.5581
v  0.0000 0.4940 -0.5581
v  0.6086 0.4940 -0.5581
v  1.1939 0.4940 -0.5581
v  1.7791 0.4940 -0.5581
v  -1.1705 0.4940 -1.1162
v  -1.3972 0.4940 -1.1162
v  -0.5853 0.4940 -1.1162
v  0.0000 0.4940 -1.1162
v  0.6086 0.4940 -1.1162
v  1.1939 0.4940 -1.1162
v  1.7791 0.4940 -1.1162
v  -1.1705 0.4940 -1.6743
v  -1.3141 0.4940 -1.6743
v  -0.5853 0.4940 -1.6743
v  0.0000 0.4940 -1.6743
v  0.6086 0.4940 -1.6743
v  1.1939 0.4940 -1.6743
v  1.6351 0.4940 -1.5425
v  -1.5154 0.0000 -1.6745
v  -1.5985 0.0000 -1.1164
v  -1.5985 0.4940 -1.1164
v  -1.5154 0.4940 -1.6745
v  -1.5985 0.0000 -0.5583
v  -1.5985 0.4940 -0.5583
v  -1.5985 0.0000 -0.0002
v  -1.5985 0.4940 -0.0002
v  -1.5985 0.0000 0.5579
v  -1.5985 0.4940 0.5579
v  -1.5985 0.0000 1.1160
v  -1.5985 0.4940 1.1160
v  -1.5200 0.0000 1.6741
v  -1.5200 0.4940 1.6741
v  -1.0968 -0.1918 -0.6281
v  -0.6590 -0.1918 -0.6281
v  -1.0968 -0.1918 -1.0462
v  -0.6590 -0.1918 -1.0462
v  0.6824 -0.1918 1.0462
v  1.1201 -0.1918 1.0462
v  0.6824 -0.1918 0.6281
v  1.1201 -0.1918 0.6281
v  0.6824 -0.1918 -0.6281
v  1.1201 -0.1918 -0.6281
v  0.6824 -0.1918 -1.0462
v  1.1201 -0.1918 -1.0462
v  -1.0968 -0.1918 1.0462
v  -0.6590 -0.1918 1.0462
v  -1.0968 -0.1918 0.6281
v  -0.6590 -0.1918 0.6281
v  -1.7453 4.1466 1.5704
v  -1.7946 4.1466 1.2199
v  -1.8565 4.1466 1.2198
v  -1.8072 4.1466 1.5703
v  -1.7938 4.1466 -1.2201
v  -1.7416 4.1466 -1.5706
v  -1.8034 4.1466 -1.5707
v  -1.8556 4.1466 -1.2201
v  -1.5963 2.5073 1.1162
v  -1.6487 3.0372 1.1162
v  -1.6690 3.2423 1.1162
v  -1.7395 3.9546 1.1162
v  -1.6610 3.9546 1.6743
v  -1.7969 2.5000 1.1160
v  -1.8623 3.9546 1.6741
v  -1.9408 3.9546 1.1160
v  -1.8703 3.2418 1.1160
v  -1.8500 3.0362 1.1160
v  -1.6564 3.9546 -1.6743
v  -1.7395 3.9546 -1.1162
v  -1.8577 3.9546 -1.6745
v  -1.9408 3.9546 -1.1164
v  -1.8672 3.2421 -1.1303
v  -1.9377 3.9548 -1.1303
v  -1.7364 3.9548 -1.1300
v  -1.6660 3.2426 -1.1300
v  -1.7939 2.5003 -1.1303
v  -1.8469 3.0365 -1.1303
v  -1.6457 3.0375 -1.1300
v  -1.5933 2.5076 -1.1300
# 174 vertices

vn -0.0005 -0.7070 0.7073
vn 0.0000 -1.0000 -0.0000
vn -0.2009 -0.9588 0.2009
vn 0.0000 -0.7071 0.7071
vn 0.2009 -0.9588 0.2009
vn 0.0925 -0.6798 0.7275
vn 0.7301 -0.6735 0.1159
vn 0.5410 -0.6133 0.5755
vn -0.2009 -0.9588 -0.2009
vn -0.6013 -0.5371 0.5916
vn -0.6093 -0.5679 -0.5534
vn 0.5510 -0.6174 -0.5615
vn 0.5458 -0.5824 0.6024
vn 0.2009 -0.9588 -0.2009
vn -0.5537 -0.5754 0.6020
vn -0.5596 -0.6118 -0.5590
vn 0.6017 -0.5761 -0.5533
vn 0.5936 -0.5428 0.5941
vn 0.7071 -0.7071 -0.0000
vn -0.6247 -0.5696 0.5342
vn -0.6014 -0.5398 -0.5890
vn 0.5456 -0.5853 -0.5997
vn 0.5309 -0.6102 0.5880
vn -0.5587 -0.6068 0.5654
vn -0.5545 -0.5808 -0.5960
vn 0.5948 -0.5478 -0.5884
vn 0.6005 -0.5715 0.5593
vn 0.7299 -0.6740 -0.1142
vn 0.0005 -0.7073 -0.7070
vn 0.0000 -0.7071 -0.7071
vn 0.1121 -0.6745 -0.7297
vn 0.5550 -0.6168 -0.5581
vn 0.3053 0.3678 0.8784
vn 0.0000 0.7071 0.7071
vn 0.0000 1.0000 -0.0000
vn 0.2977 0.8991 -0.3208
vn 0.0925 0.6798 0.7275
vn 0.5410 0.6133 0.5755
vn 0.7301 0.6735 0.1159
vn 0.7071 0.7071 -0.0000
vn 0.2969 0.8985 0.3232
vn 0.7299 0.6740 -0.1142
vn 0.0000 0.7071 -0.7071
vn 0.3068 0.3697 -0.8770
vn 0.1121 0.6745 -0.7297
vn 0.5550 0.6168 -0.5581
vn -0.5314 -0.5851 -0.6127
vn -0.7204 -0.6917 -0.0507
vn -0.9284 0.2817 0.2423
vn -0.6432 -0.0300 -0.7652
vn -0.7071 -0.7071 -0.0000
vn -0.7071 0.7071 -0.0000
vn -0.7199 -0.6925 0.0479
vn -0.9272 0.2819 -0.2468
vn -0.5347 -0.5847 0.6101
vn -0.6471 -0.0302 0.7618
vn -0.6682 -0.2565 0.6984
vn 0.6760 -0.3106 0.6682
vn -0.6865 -0.2157 -0.6944
vn 0.6931 -0.2796 -0.6644
vn -0.6948 -0.2662 0.6681
vn 0.6900 -0.2195 0.6897
vn -0.6727 -0.3074 -0.6730
vn 0.6680 -0.2671 -0.6946
vn -0.6759 -0.3014 0.6726
vn 0.6711 -0.2602 0.6942
vn -0.6916 -0.2720 -0.6691
vn 0.6868 -0.2263 -0.6907
vn -0.6879 -0.2120 0.6942
vn 0.6946 -0.2764 0.6642
vn -0.6672 -0.2580 -0.6988
vn 0.6738 -0.3141 -0.6688
vn 0.5035 0.7809 0.3695
vn 0.4544 0.7730 -0.4427
vn -0.5035 0.7809 -0.3695
vn -0.4544 0.7730 0.4427
vn 0.4522 0.7729 0.4451
vn 0.5053 0.7812 -0.3667
vn -0.4522 0.7729 -0.4451
vn -0.5053 0.7812 0.3667
vn 0.8968 -0.2147 -0.3868
vn 0.8603 0.3710 -0.3498
vn 0.8922 -0.2164 -0.3963
vn 0.7891 0.5426 -0.2881
vn 0.6976 0.2920 0.6543
vn -0.8952 -0.3905 -0.2147
vn -0.6436 0.2093 0.7362
vn -0.8699 0.4677 -0.1563
vn -0.8986 -0.3874 -0.2059
vn -0.9407 0.2282 -0.2512
vn 0.7009 0.2926 -0.6505
vn 0.6054 0.2677 0.7496
vn -0.6399 0.2091 -0.7395
vn -0.7367 0.2260 0.6374
vn -0.5458 -0.6018 -0.5830
vn -0.6055 0.5520 -0.5733
vn 0.5480 0.6011 -0.5817
vn 0.6076 -0.5510 -0.5720
vn -0.5360 -0.6125 -0.5810
vn -0.6066 0.5504 -0.5736
vn 0.5466 0.6027 -0.5814
vn 0.6165 -0.5392 -0.5737
# 102 vertex normals

vt 0.4810 0.3059 0.0000
vt 0.4870 0.3474 0.0000
vt 0.4709 0.3477 0.0000
vt 0.4705 0.3060 0.0000
vt 0.4292 0.3481 0.0000
vt 0.4292 0.3064 0.0000
vt 0.3876 0.3478 0.0000
vt 0.3879 0.3061 0.0000
vt 0.3444 0.3474 0.0000
vt 0.3449 0.3057 0.0000
vt 0.3029 0.3468 0.0000
vt 0.3035 0.3051 0.0000
vt 0.3015 0.3049 0.0000
vt 0.3020 0.3466 0.0000
vt 0.2606 0.3469 0.0000
vt 0.2711 0.3131 0.0000
vt 0.4869 0.3490 0.0000
vt 0.4859 0.3905 0.0000
vt 0.4699 0.3903 0.0000
vt 0.4709 0.3486 0.0000
vt 0.2278 0.0420 0.0000
vt 0.2061 0.0645 0.0000
vt 0.1838 0.0429 0.0000
vt 0.2055 0.0205 0.0000
vt 0.4285 0.3899 0.0000
vt 0.3871 0.3895 0.0000
vt 0.3440 0.3890 0.0000
vt 0.0765 0.0420 0.0000
vt 0.0548 0.0645 0.0000
vt 0.0325 0.0429 0.0000
vt 0.0542 0.0205 0.0000
vt 0.3024 0.3885 0.0000
vt 0.2609 0.3884 0.0000
vt 0.4789 0.4357 0.0000
vt 0.4695 0.4320 0.0000
vt 0.4281 0.4317 0.0000
vt 0.3866 0.4312 0.0000
vt 0.3435 0.4306 0.0000
vt 0.3021 0.4302 0.0000
vt 0.2606 0.4299 0.0000
vt 0.4932 0.4745 0.0000
vt 0.4695 0.4737 0.0000
vt 0.4277 0.4735 0.0000
vt 0.3861 0.4729 0.0000
vt 0.3430 0.4723 0.0000
vt 0.3017 0.4718 0.0000
vt 0.2602 0.4714 0.0000
vt 0.4877 0.5149 0.0000
vt 0.4716 0.5156 0.0000
vt 0.2712 0.0423 0.0000
vt 0.2508 0.0647 0.0000
vt 0.2285 0.0445 0.0000
vt 0.2502 0.0205 0.0000
vt 0.4269 0.5153 0.0000
vt 0.3854 0.5146 0.0000
vt 0.3422 0.5140 0.0000
vt 0.1222 0.0420 0.0000
vt 0.1005 0.0645 0.0000
vt 0.0782 0.0429 0.0000
vt 0.0999 0.0205 0.0000
vt 0.3012 0.5135 0.0000
vt 0.2597 0.5130 0.0000
vt 0.4843 0.5171 0.0000
vt 0.4774 0.5584 0.0000
vt 0.4673 0.5581 0.0000
vt 0.4683 0.5164 0.0000
vt 0.4260 0.5570 0.0000
vt 0.3848 0.5562 0.0000
vt 0.3419 0.5557 0.0000
vt 0.3006 0.5560 0.0000
vt 0.3004 0.5144 0.0000
vt 0.2693 0.5463 0.0000
vt 0.2589 0.5146 0.0000
vt 0.0390 0.3142 0.0000
vt 0.0495 0.3143 0.0000
vt 0.0493 0.3559 0.0000
vt 0.0333 0.3559 0.0000
vt 0.0910 0.3145 0.0000
vt 0.0908 0.3561 0.0000
vt 0.1325 0.3147 0.0000
vt 0.1323 0.3563 0.0000
vt 0.1756 0.3149 0.0000
vt 0.1754 0.3565 0.0000
vt 0.2170 0.3151 0.0000
vt 0.2168 0.3567 0.0000
vt 0.2475 0.3231 0.0000
vt 0.2583 0.3569 0.0000
vt 0.0491 0.3976 0.0000
vt 0.0331 0.3975 0.0000
vt 0.0906 0.3978 0.0000
vt 0.1321 0.3980 0.0000
vt 0.1752 0.3982 0.0000
vt 0.2167 0.3984 0.0000
vt 0.2581 0.3986 0.0000
vt 0.0489 0.4392 0.0000
vt 0.0329 0.4392 0.0000
vt 0.0904 0.4394 0.0000
vt 0.1319 0.4396 0.0000
vt 0.1750 0.4398 0.0000
vt 0.2165 0.4400 0.0000
vt 0.2579 0.4402 0.0000
vt 0.0488 0.4809 0.0000
vt 0.0327 0.4808 0.0000
vt 0.0902 0.4811 0.0000
vt 0.1317 0.4813 0.0000
vt 0.1748 0.4815 0.0000
vt 0.2163 0.4817 0.0000
vt 0.2577 0.4819 0.0000
vt 0.0486 0.5225 0.0000
vt 0.0325 0.5225 0.0000
vt 0.0900 0.5227 0.0000
vt 0.1315 0.5229 0.0000
vt 0.1746 0.5231 0.0000
vt 0.2161 0.5233 0.0000
vt 0.2575 0.5235 0.0000
vt 0.0484 0.5642 0.0000
vt 0.0382 0.5642 0.0000
vt 0.0898 0.5644 0.0000
vt 0.1313 0.5646 0.0000
vt 0.1744 0.5648 0.0000
vt 0.2159 0.5650 0.0000
vt 0.2472 0.5553 0.0000
vt 0.2978 0.5673 0.0000
vt 0.3083 0.5673 0.0000
vt 0.3080 0.6042 0.0000
vt 0.2975 0.6041 0.0000
vt 0.3497 0.5677 0.0000
vt 0.3494 0.6046 0.0000
vt 0.3912 0.5680 0.0000
vt 0.3909 0.6049 0.0000
vt 0.4343 0.5684 0.0000
vt 0.4340 0.6052 0.0000
vt 0.4758 0.5687 0.0000
vt 0.4755 0.6056 0.0000
vt 0.5072 0.5690 0.0000
vt 0.5069 0.6058 0.0000
vt 0.5428 0.5693 0.0000
vt 0.5425 0.6061 0.0000
vt 0.5844 0.5696 0.0000
vt 0.5841 0.6065 0.0000
vt 0.6261 0.5699 0.0000
vt 0.6258 0.6068 0.0000
vt 0.6677 0.5703 0.0000
vt 0.6674 0.6072 0.0000
vt 0.7094 0.5706 0.0000
vt 0.7091 0.6075 0.0000
vt 0.7428 0.5709 0.0000
vt 0.7425 0.6078 0.0000
vt 0.7756 0.5712 0.0000
vt 0.7753 0.6080 0.0000
vt 0.8170 0.5715 0.0000
vt 0.8167 0.6084 0.0000
vt 0.8601 0.5719 0.0000
vt 0.8598 0.6087 0.0000
vt 0.9016 0.5722 0.0000
vt 0.9013 0.6091 0.0000
vt 0.9431 0.5725 0.0000
vt 0.9428 0.6094 0.0000
vt 0.9532 0.5726 0.0000
vt 0.9529 0.6095 0.0000
vt 0.0328 0.5651 0.0000
vt 0.0749 0.5654 0.0000
vt 0.0746 0.6023 0.0000
vt 0.0325 0.6020 0.0000
vt 0.1165 0.5658 0.0000
vt 0.1162 0.6027 0.0000
vt 0.1582 0.5661 0.0000
vt 0.1579 0.6030 0.0000
vt 0.1998 0.5665 0.0000
vt 0.1995 0.6033 0.0000
vt 0.2415 0.5668 0.0000
vt 0.2412 0.6037 0.0000
vt 0.2835 0.5671 0.0000
vt 0.2832 0.6040 0.0000
vt 0.5482 0.0584 0.0000
vt 0.5550 0.0205 0.0000
vt 0.5688 0.0289 0.0000
vt 0.5640 0.0597 0.0000
vt 0.5493 0.1590 0.0000
vt 0.5504 0.1232 0.0000
vt 0.5655 0.1225 0.0000
vt 0.5635 0.1538 0.0000
vt 0.5488 0.0918 0.0000
vt 0.5641 0.0912 0.0000
vt 0.3657 0.2473 0.0000
vt 0.3648 0.2161 0.0000
vt 0.3801 0.2155 0.0000
vt 0.3808 0.2468 0.0000
vt 0.3636 0.1829 0.0000
vt 0.3795 0.1840 0.0000
vt 0.3695 0.1450 0.0000
vt 0.3835 0.1531 0.0000
vt 0.3642 0.2831 0.0000
vt 0.3784 0.2781 0.0000
vt 0.9318 0.2310 0.0000
vt 0.9329 0.2637 0.0000
vt 0.9171 0.2627 0.0000
vt 0.9165 0.2314 0.0000
vt 0.9276 0.3018 0.0000
vt 0.9135 0.2939 0.0000
vt 0.9330 0.1638 0.0000
vt 0.9314 0.1995 0.0000
vt 0.9164 0.1999 0.0000
vt 0.9188 0.1688 0.0000
vt 0.7865 0.2895 0.0000
vt 0.7848 0.3249 0.0000
vt 0.7698 0.3255 0.0000
vt 0.7723 0.2945 0.0000
vt 0.7863 0.3560 0.0000
vt 0.7711 0.3571 0.0000
vt 0.7889 0.3889 0.0000
vt 0.7730 0.3883 0.0000
vt 0.7839 0.4272 0.0000
vt 0.7697 0.4195 0.0000
vt 0.6509 0.2513 0.0000
vt 0.6502 0.2203 0.0000
vt 0.6480 0.2824 0.0000
vt 0.6500 0.1891 0.0000
vt 0.6532 0.1582 0.0000
vt 0.8349 0.0409 0.0000
vt 0.8308 0.0708 0.0000
vt 0.8325 0.1334 0.0000
vt 0.8297 0.1636 0.0000
vt 0.8310 0.1033 0.0000
vt 0.5025 0.3202 0.0000
vt 0.5059 0.2893 0.0000
vt 0.5038 0.3514 0.0000
vt 0.5060 0.3824 0.0000
vt 0.5033 0.4135 0.0000
vt 0.6467 0.2264 0.0000
vt 0.6475 0.2574 0.0000
vt 0.6459 0.1951 0.0000
vt 0.6493 0.1643 0.0000
vt 0.6442 0.2885 0.0000
vt 0.4952 0.3057 0.0000
vt 0.5012 0.3472 0.0000
vt 0.1316 0.0205 0.0000
vt 0.1282 0.0467 0.0000
vt 0.1238 0.0467 0.0000
vt 0.1273 0.0205 0.0000
vt 0.8879 0.0361 0.0000
vt 0.8463 0.0358 0.0000
vt 0.8464 0.0215 0.0000
vt 0.8880 0.0218 0.0000
vt 0.8046 0.0354 0.0000
vt 0.8047 0.0212 0.0000
vt 0.7630 0.0351 0.0000
vt 0.7631 0.0208 0.0000
vt 0.7213 0.0347 0.0000
vt 0.7214 0.0205 0.0000
vt 0.1377 0.0205 0.0000
vt 0.1411 0.0467 0.0000
vt 0.1368 0.0467 0.0000
vt 0.1333 0.0205 0.0000
vt 0.9675 0.5727 0.0000
vt 0.9672 0.6096 0.0000
vt 0.4986 0.5174 0.0000
vt 0.4917 0.5588 0.0000
vt 0.5065 0.4693 0.0000
vt 0.5019 0.5143 0.0000
vt 0.4924 0.4308 0.0000
vt 0.5002 0.3907 0.0000
vt 0.5012 0.3493 0.0000
vt 0.8491 0.4593 0.0000
vt 0.8495 0.5014 0.0000
vt 0.6983 0.5050 0.0000
vt 0.6585 0.5059 0.0000
vt 0.6431 0.5063 0.0000
vt 0.5896 0.5076 0.0000
vt 0.5896 0.4657 0.0000
vt 0.6336 0.4348 0.0000
vt 0.7892 0.4288 0.0000
vt 0.7889 0.4436 0.0000
vt 0.6328 0.4496 0.0000
vt 0.3532 0.3048 0.0000
vt 0.3103 0.3024 0.0000
vt 0.3283 0.0385 0.0000
vt 0.3636 0.1517 0.0000
vt 0.3722 0.0397 0.0000
vt 0.3674 0.0949 0.0000
vt 0.3664 0.1107 0.0000
vt 0.8474 0.4451 0.0000
vt 0.5874 0.4518 0.0000
vt 0.9671 0.5163 0.0000
vt 0.9659 0.5583 0.0000
vt 0.7067 0.5478 0.0000
vt 0.7079 0.5058 0.0000
vt 0.0325 0.3134 0.0000
vt 0.0334 0.2991 0.0000
vt 0.2927 0.2916 0.0000
vt 0.2923 0.3057 0.0000
vt 0.0328 0.2570 0.0000
vt 0.2925 0.2497 0.0000
vt 0.1555 0.0291 0.0000
vt 0.1668 0.0205 0.0000
vt 0.3039 0.2410 0.0000
vt 0.5740 0.4991 0.0000
vt 0.5748 0.4711 0.0000
vt 0.3750 0.0252 0.0000
vt 0.3612 0.0244 0.0000
vt 0.3630 0.0205 0.0000
vt 0.3353 0.0238 0.0000
vt 0.5729 0.4669 0.0000
vt 0.6918 0.5389 0.0000
vt 0.6925 0.5125 0.0000
vt 0.3074 0.2872 0.0000
vt 0.3084 0.2918 0.0000
vt 0.3079 0.2591 0.0000
vt 0.3113 0.2564 0.0000
vt 0.5372 0.1087 0.0000
vt 0.5406 0.0578 0.0000
vt 0.5474 0.0462 0.0000
vt 0.5410 0.1211 0.0000
vt 0.0343 0.1636 0.0000
vt 0.0325 0.1103 0.0000
vt 0.2001 0.1048 0.0000
vt 0.2018 0.1581 0.0000
vt 0.3663 0.1096 0.0000
vt 0.3516 0.0953 0.0000
vt 0.3505 0.1098 0.0000
vt 0.9621 0.4326 0.0000
vt 0.9621 0.3942 0.0000
vt 0.9674 0.3818 0.0000
vt 0.9657 0.4450 0.0000
vt 0.7909 0.3866 0.0000
vt 0.7918 0.3719 0.0000
vt 0.2381 0.1671 0.0000
vt 0.2372 0.2068 0.0000
vt 0.0696 0.2032 0.0000
vt 0.0705 0.1635 0.0000
# 330 texture coords

o Box009
g Box009
usemtl wire_115132022
s 2
f 1/1/1 2/2/2 3/3/3 4/4/4 
f 4/4/4 3/3/3 5/5/5 6/6/4 
f 6/6/4 5/5/5 7/7/2 8/8/4 
f 8/8/4 7/7/2 9/9/3 10/10/4 
f 10/10/4 9/9/3 11/11/5 12/12/6 
f 12/13/6 11/14/5 13/15/7 14/16/8 
f 2/17/2 15/18/2 16/19/9 3/20/3 
f 17/21/10 18/22/11 19/23/12 20/24/13 
f 5/5/5 21/25/14 22/26/2 7/7/2 
f 7/7/2 22/26/2 23/27/9 9/9/3 
f 24/28/15 25/29/16 26/30/17 27/31/18 
f 11/14/5 28/32/14 29/33/19 13/15/7 
f 15/18/2 30/34/2 31/35/2 16/19/9 
f 16/19/9 31/35/2 32/36/2 21/25/14 
f 21/25/14 32/36/2 33/37/2 22/26/2 
f 22/26/2 33/37/2 34/38/2 23/27/9 
f 23/27/9 34/38/2 35/39/2 28/32/14 
f 28/32/14 35/39/2 36/40/19 29/33/19 
f 30/34/2 37/41/2 38/42/3 31/35/2 
f 31/35/2 38/42/3 39/43/5 32/36/2 
f 32/36/2 39/43/5 40/44/2 33/37/2 
f 33/37/2 40/44/2 41/45/3 34/38/2 
f 34/38/2 41/45/3 42/46/5 35/39/2 
f 35/39/2 42/46/5 43/47/19 36/40/19 
f 37/41/2 44/48/2 45/49/9 38/42/3 
f 46/50/20 47/51/21 48/52/22 49/53/23 
f 39/43/5 50/54/14 51/55/2 40/44/2 
f 40/44/2 51/55/2 52/56/9 41/45/3 
f 53/57/24 54/58/25 55/59/26 56/60/27 
f 42/46/5 57/61/14 58/62/28 43/47/19 
f 44/63/2 59/64/29 60/65/30 45/66/9 
f 45/66/9 60/65/30 61/67/30 50/54/14 
f 50/54/14 61/67/30 62/68/30 51/55/2 
f 51/55/2 62/68/30 63/69/30 52/56/9 
f 52/56/9 63/69/30 64/70/31 57/71/14 
f 57/71/14 64/70/31 65/72/32 58/73/28 
s 4
f 66/74/33 67/75/34 68/76/35 69/77/36 
f 67/75/34 70/78/34 71/79/35 68/76/35 
f 70/78/34 72/80/34 73/81/35 71/79/35 
f 72/80/34 74/82/34 75/83/35 73/81/35 
f 74/82/34 76/84/37 77/85/35 75/83/35 
f 76/84/37 78/86/38 79/87/39 77/85/35 
f 69/77/36 68/76/35 80/88/35 81/89/35 
f 68/76/35 71/79/35 82/90/35 80/88/35 
f 71/79/35 73/81/35 83/91/35 82/90/35 
f 73/81/35 75/83/35 84/92/35 83/91/35 
f 75/83/35 77/85/35 85/93/35 84/92/35 
f 77/85/35 79/87/39 86/94/40 85/93/35 
f 81/89/35 80/88/35 87/95/35 88/96/35 
f 80/88/35 82/90/35 89/97/35 87/95/35 
f 82/90/35 83/91/35 90/98/35 89/97/35 
f 83/91/35 84/92/35 91/99/35 90/98/35 
f 84/92/35 85/93/35 92/100/35 91/99/35 
f 85/93/35 86/94/40 93/101/40 92/100/35 
f 88/96/35 87/95/35 94/102/35 95/103/35 
f 87/95/35 89/97/35 96/104/35 94/102/35 
f 89/97/35 90/98/35 97/105/35 96/104/35 
f 90/98/35 91/99/35 98/106/35 97/105/35 
f 91/99/35 92/100/35 99/107/35 98/106/35 
f 92/100/35 93/101/40 100/108/40 99/107/35 
f 95/103/35 94/102/35 101/109/35 102/110/41 
f 94/102/35 96/104/35 103/111/35 101/109/35 
f 96/104/35 97/105/35 104/112/35 103/111/35 
f 97/105/35 98/106/35 105/113/35 104/112/35 
f 98/106/35 99/107/35 106/114/35 105/113/35 
f 99/107/35 100/108/40 107/115/42 106/114/35 
f 102/110/41 101/109/35 108/116/43 109/117/44 
f 101/109/35 103/111/35 110/118/43 108/116/43 
f 103/111/35 104/112/35 111/119/43 110/118/43 
f 104/112/35 105/113/35 112/120/43 111/119/43 
f 105/113/35 106/114/35 113/121/45 112/120/43 
f 106/114/35 107/115/42 114/122/46 113/121/45 
s 8
f 1/123/1 4/124/4 67/125/34 66/126/33 
f 4/124/4 6/127/4 70/128/34 67/125/34 
f 6/127/4 8/129/4 72/130/34 70/128/34 
f 8/129/4 10/131/4 74/132/34 72/130/34 
f 10/131/4 12/133/6 76/134/37 74/132/34 
f 12/133/6 14/135/8 78/136/38 76/134/37 
s 16
f 14/135/8 13/137/7 79/138/39 78/136/38 
f 13/137/7 29/139/19 86/140/40 79/138/39 
f 29/139/19 36/141/19 93/142/40 86/140/40 
f 36/141/19 43/143/19 100/144/40 93/142/40 
f 43/143/19 58/145/28 107/146/42 100/144/40 
f 58/145/28 65/147/32 114/148/46 107/146/42 
s 32
f 65/147/32 64/149/31 113/150/45 114/148/46 
f 64/149/31 63/151/30 112/152/43 113/150/45 
f 63/151/30 62/153/30 111/154/43 112/152/43 
f 62/153/30 61/155/30 110/156/43 111/154/43 
f 61/155/30 60/157/30 108/158/43 110/156/43 
f 60/157/30 59/159/29 109/160/44 108/158/43 
s 64
f 115/161/47 116/162/48 117/163/49 118/164/50 
f 116/162/48 119/165/51 120/166/52 117/163/49 
f 119/165/51 121/167/51 122/168/52 120/166/52 
f 121/167/51 123/169/51 124/170/52 122/168/52 
f 123/169/51 125/171/53 126/172/54 124/170/52 
f 125/171/53 127/173/55 128/174/56 126/172/54 
s off
f 39/175/5 38/176/3 129/177/57 130/178/58 
f 38/179/3 45/180/9 131/181/59 129/182/57 
f 45/180/9 50/183/14 132/184/60 131/181/59 
f 50/183/14 39/175/5 130/178/58 132/184/60 
f 11/185/5 9/186/3 133/187/61 134/188/62 
f 9/186/3 23/189/9 135/190/63 133/187/61 
f 23/189/9 28/191/14 136/192/64 135/190/63 
f 28/193/14 11/185/5 134/188/62 136/194/64 
f 42/195/5 41/196/3 137/197/65 138/198/66 
f 41/196/3 52/199/9 139/200/67 137/197/65 
f 52/201/9 57/202/14 140/203/68 139/204/67 
f 57/202/14 42/195/5 138/198/66 140/203/68 
f 5/205/5 3/206/3 141/207/69 142/208/70 
f 3/206/3 16/209/9 143/210/71 141/207/69 
f 16/209/9 21/211/14 144/212/72 143/210/71 
f 21/211/14 5/213/5 142/214/70 144/212/72 
f 138/198/66 137/197/65 53/215/24 56/216/27 
f 137/197/65 139/200/67 54/217/25 53/215/24 
f 139/204/67 140/203/68 55/218/26 54/219/25 
f 140/203/68 138/198/66 56/216/27 55/218/26 
f 130/178/58 129/177/57 46/220/20 49/221/23 
f 129/182/57 131/181/59 47/222/21 46/223/20 
f 131/181/59 132/184/60 48/224/22 47/222/21 
f 132/184/60 130/178/58 49/221/23 48/224/22 
f 142/208/70 141/207/69 17/225/10 20/226/13 
f 141/207/69 143/210/71 18/227/11 17/225/10 
f 143/210/71 144/212/72 19/228/12 18/227/11 
f 144/212/72 142/214/70 20/229/13 19/228/12 
f 134/188/62 133/187/61 24/230/15 27/231/18 
f 133/187/61 135/190/63 25/232/16 24/230/15 
f 135/190/63 136/192/64 26/233/17 25/232/16 
f 136/194/64 134/188/62 27/231/18 26/234/17 
f 2/2/2 1/1/1 127/235/55 125/236/53 
f 1/123/1 66/126/33 128/174/56 127/173/55 
f 145/237/73 146/238/74 147/239/75 148/240/76 
f 69/241/36 81/242/35 124/243/52 126/244/54 
f 81/242/35 88/245/35 122/246/52 124/243/52 
f 88/245/35 95/247/35 120/248/52 122/246/52 
f 95/247/35 102/249/41 117/250/49 120/248/52 
f 149/251/77 150/252/78 151/253/79 152/254/80 
f 109/160/44 59/159/29 115/255/47 118/256/50 
f 59/64/29 44/63/2 116/257/48 115/258/47 
f 44/48/2 37/41/2 119/259/51 116/260/48 
f 37/41/2 30/34/2 121/261/51 119/259/51 
f 30/34/2 15/18/2 123/262/51 121/261/51 
f 15/18/2 2/17/2 125/263/53 123/262/51 
f 66/264/33 69/265/36 153/266/81 154/267/82 
f 66/264/33 154/267/82 155/268/83 156/269/84 
f 66/264/33 156/269/84 157/270/85 
f 126/271/54 158/272/86 153/273/81 69/274/36 
f 126/275/54 128/276/56 159/277/87 158/278/86 
f 159/277/87 160/279/88 161/280/89 162/281/90 
f 159/277/87 162/281/90 158/278/86 
f 128/282/56 66/264/33 157/270/85 159/283/87 
f 102/284/41 109/285/44 163/286/91 164/287/92 
f 109/288/44 118/289/50 165/290/93 163/291/91 
f 118/289/50 117/292/49 166/293/94 165/290/93 
f 117/294/49 102/295/41 164/296/92 166/293/94 
f 157/270/85 156/269/84 146/297/74 145/298/73 
f 156/299/84 160/279/88 147/300/75 146/301/74 
f 160/279/88 159/277/87 148/302/76 147/300/75 
f 159/283/87 157/270/85 145/298/73 148/303/76 
f 164/287/92 163/286/91 150/304/78 149/305/77 
f 163/291/91 165/290/93 151/306/79 150/307/78 
f 165/290/93 166/293/94 152/308/80 151/306/79 
f 166/293/94 164/296/92 149/309/77 152/308/80 
f 167/310/95 168/311/96 169/312/97 170/313/98 
f 160/279/88 156/299/84 169/312/97 168/311/96 
f 156/314/84 155/315/83 170/316/98 169/317/97 
f 155/318/83 161/280/89 167/310/95 170/313/98 
f 161/280/89 160/279/88 168/311/96 167/310/95 
f 162/319/90 161/280/89 155/318/83 154/320/82 
f 171/321/99 172/322/100 173/323/101 174/324/102 
f 162/325/90 154/326/82 173/323/101 172/322/100 
f 154/327/82 153/328/81 174/329/102 173/330/101 
f 153/273/81 158/272/86 171/321/99 174/324/102 
f 158/272/86 162/325/90 172/322/100 171/321/99 
# 171 polygons - 2 triangles

