# 3ds Max Wavefront OBJ Exporter v0.99 - (c)2007 guruware
# File Created: 15.12.2024 11:12:33

mtllib naklejka1.mtl

#
# object Box029
#

v  -0.3392 0.1044 0.3782
v  -0.4020 0.0536 0.2601
v  -0.2412 0.0000 0.2601
v  -0.2412 0.0536 0.4335
v  -0.0804 0.0000 0.2601
v  -0.0804 0.0000 0.4335
v  0.0804 0.0000 0.2601
v  0.0804 0.0000 0.4335
v  0.2412 0.0000 0.2601
v  0.2412 0.0000 0.4335
v  0.4020 0.0000 0.2601
v  0.4020 0.0000 0.4335
v  -0.4020 0.0000 0.0867
v  -0.2412 0.0000 0.0867
v  -0.0804 0.0000 0.0867
v  0.0804 0.0000 0.0867
v  0.2412 0.0000 0.0867
v  0.4020 0.0000 0.0867
v  -0.4020 0.0000 -0.0867
v  -0.2412 0.0000 -0.0867
v  -0.0804 0.0000 -0.0867
v  0.0804 0.0000 -0.0867
v  0.2412 0.0000 -0.0867
v  0.4020 0.0000 -0.0867
v  -0.4020 0.0000 -0.2601
v  -0.2412 0.0000 -0.2601
v  -0.0804 0.0000 -0.2601
v  0.0804 0.0000 -0.2601
v  0.2412 0.0000 -0.2601
v  0.4020 0.0000 -0.2601
v  -0.4020 0.0000 -0.4335
v  -0.2412 0.0000 -0.4335
v  -0.0804 0.0000 -0.4335
v  0.0804 0.0000 -0.4335
v  0.2412 0.0000 -0.4335
v  0.4020 0.0000 -0.4335
v  -0.3392 0.1198 0.3782
v  -0.2412 0.0690 0.4335
v  -0.2412 0.0154 0.2601
v  -0.4020 0.0690 0.2601
v  -0.0804 0.0154 0.4335
v  -0.0804 0.0154 0.2601
v  0.0804 0.0154 0.4335
v  0.0804 0.0154 0.2601
v  0.2412 0.0154 0.4335
v  0.2412 0.0154 0.2601
v  0.4020 0.0154 0.4335
v  0.4020 0.0154 0.2601
v  -0.2412 0.0154 0.0867
v  -0.4020 0.0154 0.0867
v  -0.0804 0.0154 0.0867
v  0.0804 0.0154 0.0867
v  0.2412 0.0154 0.0867
v  0.4020 0.0154 0.0867
v  -0.2412 0.0154 -0.0867
v  -0.4020 0.0154 -0.0867
v  -0.0804 0.0154 -0.0867
v  0.0804 0.0154 -0.0867
v  0.2412 0.0154 -0.0867
v  0.4020 0.0154 -0.0867
v  -0.2412 0.0154 -0.2601
v  -0.4020 0.0154 -0.2601
v  -0.0804 0.0154 -0.2601
v  0.0804 0.0154 -0.2601
v  0.2412 0.0154 -0.2601
v  0.4020 0.0154 -0.2601
v  -0.2412 0.0154 -0.4335
v  -0.4020 0.0154 -0.4335
v  -0.0804 0.0154 -0.4335
v  0.0804 0.0154 -0.4335
v  0.2412 0.0154 -0.4335
v  0.4020 0.0154 -0.4335
# 72 vertices

vn -0.7029 -0.2136 0.6785
vn -0.7919 -0.5058 0.3422
vn -0.1562 -0.9770 0.1454
vn -0.3679 -0.5064 0.7798
vn 0.0000 -1.0000 -0.0000
vn -0.1184 -0.7303 0.6728
vn 0.0000 -0.7071 0.7071
vn 0.7071 -0.7071 -0.0000
vn 0.5774 -0.5774 0.5774
vn -0.6750 -0.7295 0.1101
vn -0.7071 -0.7071 -0.0000
vn -0.5774 -0.5774 -0.5774
vn 0.0000 -0.7071 -0.7071
vn 0.5774 -0.5774 -0.5774
vn -0.2346 0.9369 0.2592
vn 0.0500 0.7195 0.6927
vn 0.1562 0.9770 -0.1454
vn -0.6753 0.7363 -0.0427
vn 0.1068 0.6585 0.7450
vn 0.0000 1.0000 -0.0000
vn 0.0000 0.7071 0.7071
vn 0.5774 0.5774 0.5774
vn 0.7071 0.7071 -0.0000
vn -0.7423 0.6626 -0.1000
vn -0.7071 0.7071 -0.0000
vn 0.0000 0.7071 -0.7071
vn -0.5774 0.5774 -0.5774
vn 0.5774 0.5774 -0.5774
# 28 vertex normals

vt 1.0000 0.0000 0.0000
vt 1.0000 0.2000 0.0000
vt 0.8000 0.2000 0.0000
vt 0.8000 0.0000 0.0000
vt 0.6000 0.2000 0.0000
vt 0.6000 0.0000 0.0000
vt 0.4000 0.2000 0.0000
vt 0.4000 0.0000 0.0000
vt 0.2000 0.2000 0.0000
vt 0.2000 0.0000 0.0000
vt 0.0000 0.2000 0.0000
vt 0.0000 0.0000 0.0000
vt 1.0000 0.4000 0.0000
vt 0.8000 0.4000 0.0000
vt 0.6000 0.4000 0.0000
vt 0.4000 0.4000 0.0000
vt 0.2000 0.4000 0.0000
vt 0.0000 0.4000 0.0000
vt 1.0000 0.6000 0.0000
vt 0.8000 0.6000 0.0000
vt 0.6000 0.6000 0.0000
vt 0.4000 0.6000 0.0000
vt 0.2000 0.6000 0.0000
vt 0.0000 0.6000 0.0000
vt 1.0000 0.8000 0.0000
vt 0.8000 0.8000 0.0000
vt 0.6000 0.8000 0.0000
vt 0.4000 0.8000 0.0000
vt 0.2000 0.8000 0.0000
vt 0.0000 0.8000 0.0000
vt 1.0000 1.0000 0.0000
vt 0.8000 1.0000 0.0000
vt 0.6000 1.0000 0.0000
vt 0.4000 1.0000 0.0000
vt 0.2000 1.0000 0.0000
vt 0.0000 1.0000 0.0000
# 36 texture coords

o Box029
g Box029
usemtl wire_180222188
s 2
f 1/1/1 2/2/2 3/3/3 4/4/4 
f 4/4/4 3/3/3 5/5/5 6/6/6 
f 6/6/6 5/5/5 7/7/5 8/8/7 
f 8/8/7 7/7/5 9/9/5 10/10/7 
f 10/10/7 9/9/5 11/11/8 12/12/9 
f 2/2/2 13/13/10 14/14/5 3/3/3 
f 3/3/3 14/14/5 15/15/5 5/5/5 
f 5/5/5 15/15/5 16/16/5 7/7/5 
f 7/7/5 16/16/5 17/17/5 9/9/5 
f 9/9/5 17/17/5 18/18/8 11/11/8 
f 13/13/10 19/19/11 20/20/5 14/14/5 
f 14/14/5 20/20/5 21/21/5 15/15/5 
f 15/15/5 21/21/5 22/22/5 16/16/5 
f 16/16/5 22/22/5 23/23/5 17/17/5 
f 17/17/5 23/23/5 24/24/8 18/18/8 
f 19/19/11 25/25/11 26/26/5 20/20/5 
f 20/20/5 26/26/5 27/27/5 21/21/5 
f 21/21/5 27/27/5 28/28/5 22/22/5 
f 22/22/5 28/28/5 29/29/5 23/23/5 
f 23/23/5 29/29/5 30/30/8 24/24/8 
f 25/25/11 31/31/12 32/32/13 26/26/5 
f 26/26/5 32/32/13 33/33/13 27/27/5 
f 27/27/5 33/33/13 34/34/13 28/28/5 
f 28/28/5 34/34/13 35/35/13 29/29/5 
f 29/29/5 35/35/13 36/36/14 30/30/8 
s 4
f 37/12/15 38/10/16 39/9/17 40/11/18 
f 38/10/16 41/8/19 42/7/20 39/9/17 
f 41/8/19 43/6/21 44/5/20 42/7/20 
f 43/6/21 45/4/21 46/3/20 44/5/20 
f 45/4/21 47/1/22 48/2/23 46/3/20 
f 40/11/18 39/9/17 49/17/20 50/18/24 
f 39/9/17 42/7/20 51/16/20 49/17/20 
f 42/7/20 44/5/20 52/15/20 51/16/20 
f 44/5/20 46/3/20 53/14/20 52/15/20 
f 46/3/20 48/2/23 54/13/23 53/14/20 
f 50/18/24 49/17/20 55/23/20 56/24/25 
f 49/17/20 51/16/20 57/22/20 55/23/20 
f 51/16/20 52/15/20 58/21/20 57/22/20 
f 52/15/20 53/14/20 59/20/20 58/21/20 
f 53/14/20 54/13/23 60/19/23 59/20/20 
f 56/24/25 55/23/20 61/29/20 62/30/25 
f 55/23/20 57/22/20 63/28/20 61/29/20 
f 57/22/20 58/21/20 64/27/20 63/28/20 
f 58/21/20 59/20/20 65/26/20 64/27/20 
f 59/20/20 60/19/23 66/25/23 65/26/20 
f 62/30/25 61/29/20 67/35/26 68/36/27 
f 61/29/20 63/28/20 69/34/26 67/35/26 
f 63/28/20 64/27/20 70/33/26 69/34/26 
f 64/27/20 65/26/20 71/32/26 70/33/26 
f 65/26/20 66/25/23 72/31/28 71/32/26 
s 8
f 1/12/1 4/10/4 38/35/16 37/36/15 
f 4/10/4 6/8/6 41/34/19 38/35/16 
f 6/8/6 8/6/7 43/33/21 41/34/19 
f 8/6/7 10/4/7 45/32/21 43/33/21 
f 10/4/7 12/1/9 47/31/22 45/32/21 
s 16
f 12/12/9 11/10/8 48/35/23 47/36/22 
f 11/10/8 18/8/8 54/34/23 48/35/23 
f 18/8/8 24/6/8 60/33/23 54/34/23 
f 24/6/8 30/4/8 66/32/23 60/33/23 
f 30/4/8 36/1/14 72/31/28 66/32/23 
s 32
f 36/12/14 35/10/13 71/35/26 72/36/28 
f 35/10/13 34/8/13 70/34/26 71/35/26 
f 34/8/13 33/6/13 69/33/26 70/34/26 
f 33/6/13 32/4/13 67/32/26 69/33/26 
f 32/4/13 31/1/12 68/31/27 67/32/26 
s 64
f 31/12/12 25/10/11 62/35/25 68/36/27 
f 25/10/11 19/8/11 56/34/25 62/35/25 
f 19/8/11 13/6/10 50/33/24 56/34/25 
f 13/6/10 2/4/2 40/32/18 50/33/24 
f 2/4/2 1/1/1 37/31/15 40/32/18 
# 70 polygons

