# File produced by Open Asset Import Library (http://www.assimp.sf.net)
# (assimp v3.1.118612264)

mtllib Pokuj%201%20tek.mtl

# vertex positions
v -44.618401 0.000200 34.876999
v -29.616800 0.000200 34.876999
v -29.616800 0.000200 56.828300
v -44.618401 0.000200 56.828300
v -45.340099 0.000200 57.549900
v -45.340099 0.000200 34.876999
v -44.618401 0.000200 12.925600
v -29.616800 0.000200 12.925600
v -16.317600 0.000200 39.982800
v -14.615100 0.000200 34.876999
v -14.615100 0.000200 39.982800
v -18.077000 0.000200 39.982800
v -18.077000 0.000200 48.609501
v -16.317600 0.000200 48.609501
v -14.615100 0.000200 48.609501
v -14.615100 0.000200 56.828300
v -29.616800 0.000200 57.549900
v -45.340099 1.156100 57.549900
v -45.340099 1.156100 34.876999
v -45.340099 0.000200 12.925600
v -44.618401 0.000200 -9.025700
v -29.616800 0.000200 -9.025700
v -14.615100 0.000200 12.925600
v -11.039200 0.000200 48.609501
v 0.386600 0.000200 34.876999
v 0.386600 0.000200 56.828300
v -12.798700 0.000200 48.609501
v -14.558100 0.000200 48.609501
v -11.039200 0.000200 39.982800
v -14.558100 0.000200 39.982800
v -12.798700 0.000200 39.982800
v -14.615100 0.000200 57.549900
v -29.616800 1.156100 57.549900
v -45.340099 20.435101 57.549900
v -45.340099 20.435101 34.876999
v -45.340099 1.156100 12.925600
v -45.340099 0.000200 -9.025700
v -44.618401 0.000200 -30.976997
v -29.616800 0.000200 -30.976997
v -14.615100 0.000200 -9.025700
v 0.386600 0.000200 12.925600
v 15.388199 0.000200 34.876999
v 15.388199 0.000200 56.828300
v 0.386600 0.000200 57.549900
v -14.615100 1.156100 57.549900
v -29.616800 20.435101 57.549900
v -44.618401 20.435101 56.828300
v -44.618401 20.435101 34.876999
v -45.340099 20.435101 12.925600
v -45.340099 1.156100 -9.025700
v -45.340099 0.000200 -31.698700
v -29.616800 0.000200 -31.698700
v -14.615100 0.000200 -30.976997
v 0.386600 0.000200 -9.025700
v 15.388199 0.000200 12.925600
v 16.109800 0.000200 57.549900
v 16.109800 0.000200 34.876999
v 0.386600 1.156100 57.549900
v -14.615100 20.435101 57.549900
v -29.616800 20.435101 56.828300
v -44.618401 1.156100 34.876999
v -44.618401 1.156100 56.828300
v -44.618401 20.435101 12.925600
v -45.340099 20.435101 -9.025700
v -45.340099 1.156100 -31.698700
v -29.616800 1.156100 -31.698700
v -14.615100 0.000200 -31.698700
v 0.386600 0.000200 -30.976997
v 15.388199 0.000200 -9.025700
v 16.109800 0.000200 12.925600
v 16.109800 1.156100 34.876999
v 16.109800 1.156100 57.549900
v 0.386600 20.435101 57.549900
v -14.615100 20.435101 56.828300
v -29.616800 1.156100 56.828300
v -29.616800 1.156100 34.876999
v -44.618401 1.156100 12.925600
v -44.618401 20.435101 -9.025700
v -45.340099 20.435101 -31.698700
v -29.616800 20.435101 -31.698700
v -14.615100 1.156100 -31.698700
v 0.386600 0.000200 -31.698700
v 15.388199 0.000200 -30.976997
v 16.109800 0.000200 -9.025700
v 16.109800 1.156100 12.925600
v 16.109800 20.435101 34.876999
v 16.109800 20.435101 57.549900
v 0.386600 20.435101 56.828300
v -14.615100 1.156100 56.828300
v -18.077000 1.156100 48.609501
v -14.615100 1.156100 48.609501
v -16.317600 1.156100 48.609501
v -18.077000 1.156100 39.982800
v -16.317600 1.156100 39.982800
v -14.615100 1.156100 39.982800
v -14.615100 1.156100 34.876999
v -29.616800 1.156100 12.925600
v -44.618401 1.156100 -9.025700
v -44.618401 20.435101 -30.976997
v -29.616800 20.435101 -30.976997
v -14.615100 20.435101 -31.698700
v 0.386600 1.156100 -31.698700
v 16.109800 0.000200 -31.698700
v 16.109800 1.156100 -9.025700
v 16.109800 20.435101 12.925600
v 15.388199 20.435101 34.876999
v 15.388199 20.435101 56.828300
v 0.386600 1.156100 56.828300
v -14.558100 1.156100 39.982800
v 0.386600 1.156100 34.876999
v -11.039200 1.156100 39.982800
v -12.798700 1.156100 39.982800
v -11.039200 1.156100 48.609501
v -12.798700 1.156100 48.609501
v -14.558100 1.156100 48.609501
v -14.615100 1.156100 12.925600
v -29.616800 1.156100 -9.025700
v -44.618401 1.156100 -30.976997
v -29.616800 1.156100 -30.976997
v -14.615100 20.435101 -30.976997
v 0.386600 20.435101 -31.698700
v 16.109800 1.156100 -31.698700
v 16.109800 20.435101 -9.025700
v 15.388199 20.435101 12.925600
v 15.388199 1.156100 56.828300
v 15.388199 1.156100 34.876999
v 0.386600 1.156100 12.925600
v -14.615100 1.156100 -9.025700
v -14.615100 1.156100 -30.976997
v 0.386600 20.435101 -30.976997
v 16.109800 20.435101 -31.698700
v 15.388199 20.435101 -9.025700
v 15.388199 1.156100 12.925600
v 0.386600 1.156100 -9.025700
v 0.386600 1.156100 -30.976997
v 15.388199 20.435101 -30.976997
v 15.388199 1.156100 -9.025700
v 15.388199 1.156100 -30.976997
v -16.317600 0.082700 39.982800
v -18.077000 0.082700 39.982800
v -18.077000 0.082700 48.609501
v -16.317600 1.152600 39.982800
v -18.077000 1.152600 39.982800
v -14.558100 0.082700 39.982800
v -16.317600 0.082700 48.609501
v -18.077000 1.152600 48.609501
v -14.558100 1.152600 39.982800
v -12.798700 0.082700 39.982800
v -14.558100 0.082700 48.609501
v -16.317600 1.152600 48.609501
v -12.798700 1.152600 39.982800
v -11.039200 0.082700 39.982800
v -12.798700 0.082700 48.609501
v -14.558100 1.152600 48.609501
v -11.039200 1.152600 39.982800
v -11.039200 0.082700 48.609501
v -12.798700 1.152600 48.609501
v -11.039200 1.152600 48.609501

# UV coordinates
vt 0.355300 0.228100
vt 0.402300 0.230100
vt 0.399100 0.298700
vt 0.353200 0.295500
vt 0.350900 0.297500
vt 0.353100 0.228000
vt 0.358300 0.159800
vt 0.405100 0.161800
vt 0.443000 0.247900
vt 0.449000 0.232200
vt 0.448300 0.248200
vt 0.437500 0.247700
vt 0.436200 0.274600
vt 0.441600 0.274900
vt 0.446900 0.275200
vt 0.445700 0.300800
vt 0.398900 0.301000
vt 0.348200 0.299300
vt 0.349500 0.227900
vt 0.356100 0.159700
vt 0.361000 0.091600
vt 0.407800 0.093400
vt 0.451800 0.163700
vt 0.458600 0.275600
vt 0.495800 0.234000
vt 0.493200 0.302600
vt 0.446500 0.300800
vt 0.453100 0.275400
vt 0.447500 0.275200
vt 0.447600 0.275200
vt 0.459500 0.248600
vt 0.448500 0.248200
vt 0.454000 0.248400
vt 0.445600 0.303000
vt 0.398700 0.304700
vt 0.172700 0.762300
vt 0.112900 0.762400
vt 0.111700 0.693200
vt 0.171800 0.692000
vt 0.352500 0.159600
vt 0.358800 0.091500
vt 0.364500 0.024000
vt 0.410800 0.024800
vt 0.454600 0.095300
vt 0.498500 0.165600
vt 0.542600 0.235700
vt 0.539400 0.303300
vt 0.493100 0.304900
vt 0.446500 0.303100
vt 0.445400 0.306600
vt 0.171800 0.811000
vt 0.111900 0.809600
vt 0.110800 0.762000
vt 0.109400 0.693300
vt 0.110500 0.624900
vt 0.170500 0.623800
vt 0.355200 0.091300
vt 0.362400 0.021700
vt 0.410800 0.022500
vt 0.457400 0.026800
vt 0.501300 0.097300
vt 0.545300 0.167500
vt 0.541500 0.305500
vt 0.544900 0.235800
vt 0.493100 0.308500
vt 0.446400 0.306700
vt 0.170900 0.857600
vt 0.111000 0.856300
vt 0.109700 0.809600
vt 0.049500 0.694100
vt 0.050500 0.762200
vt 0.108300 0.624900
vt 0.109400 0.556500
vt 0.169300 0.555600
vt 0.359900 0.019600
vt 0.410900 0.018900
vt 0.457500 0.024500
vt 0.504100 0.028600
vt 0.548200 0.099200
vt 0.547500 0.167600
vt 0.548500 0.236000
vt 0.544100 0.307600
vt 0.170000 0.904200
vt 0.110100 0.903000
vt 0.108700 0.856300
vt 0.049900 0.808600
vt 0.183700 0.029300
vt 0.206100 0.091600
vt 0.158600 0.099600
vt 0.139800 0.039300
vt 0.048400 0.625900
vt 0.107200 0.556600
vt 0.108200 0.487200
vt 0.168000 0.485400
vt 0.105600 0.440200
vt 0.165800 0.436700
vt 0.457700 0.020900
vt 0.504300 0.026400
vt 0.550000 0.031800
vt 0.550400 0.099300
vt 0.551100 0.167700
vt 0.139400 0.089200
vt 0.079700 0.094600
vt 0.073400 0.024300
vt 0.133100 0.018900
vt 0.169100 0.953100
vt 0.109100 0.951900
vt 0.107800 0.903000
vt 0.048900 0.855200
vt 0.226000 0.045100
vt 0.223300 0.026800
vt 0.232500 0.031100
vt 0.236400 0.033300
vt 0.237300 0.070700
vt 0.244500 0.070300
vt 0.251500 0.069500
vt 0.251400 0.087500
vt 0.206800 0.161600
vt 0.159700 0.163600
vt 0.047300 0.557700
vt 0.106200 0.487700
vt 0.103400 0.440300
vt 0.103200 0.393500
vt 0.163100 0.390300
vt 0.504500 0.022700
vt 0.552300 0.029700
vt 0.554000 0.099400
vt 0.145600 0.157200
vt 0.085800 0.162600
vt 0.077500 0.094800
vt 0.071300 0.026800
vt 0.106900 0.949600
vt 0.047900 0.901800
vt 0.251700 0.069500
vt 0.299600 0.093000
vt 0.263600 0.070400
vt 0.257600 0.070000
vt 0.271800 0.039700
vt 0.311200 0.032600
vt 0.267200 0.036000
vt 0.265100 0.032000
vt 0.290000 0.018900
vt 0.265100 0.031900
vt 0.252900 0.160500
vt 0.206400 0.230900
vt 0.159300 0.231300
vt 0.046000 0.489700
vt 0.043600 0.443300
vt 0.100900 0.393600
vt 0.100700 0.346800
vt 0.160500 0.343800
vt 0.555100 0.027900
vt 0.151800 0.225100
vt 0.091900 0.230700
vt 0.083600 0.162800
vt 0.011600 0.032200
vt 0.017700 0.100200
vt 0.047000 0.948500
vt 0.356900 0.034500
vt 0.347900 0.098300
vt 0.299100 0.161600
vt 0.253200 0.230600
vt 0.206300 0.300000
vt 0.159200 0.300100
vt 0.041100 0.396800
vt 0.098400 0.346900
vt 0.098200 0.299600
vt 0.157900 0.295200
vt 0.089700 0.230900
vt 0.023900 0.168200
vt 0.345900 0.163000
vt 0.299800 0.230800
vt 0.253300 0.299800
vt 0.038800 0.350200
vt 0.096100 0.299400
vt 0.030000 0.236100
vt 0.346800 0.230900
vt 0.300100 0.299900
vt 0.036000 0.304000
vt 0.347200 0.299800
vt 0.559300 0.050300
vt 0.564500 0.050800
vt 0.564400 0.051100
vt 0.559100 0.050400
vt 0.559200 0.023700
vt 0.559000 0.023700
vt 0.563300 0.054300
vt 0.556000 0.051300
vt 0.569800 0.051000
vt 0.569900 0.051000
vt 0.569900 0.051300
vt 0.564500 0.023100
vt 0.564400 0.022900
vt 0.555900 0.022800
vt 0.569900 0.054800
vt 0.575500 0.050900
vt 0.575600 0.051200
vt 0.569900 0.022900
vt 0.570100 0.022900
vt 0.570100 0.022600
vt 0.563100 0.019800
vt 0.555800 0.022800
vt 0.569700 0.054800
vt 0.576600 0.054600
vt 0.580700 0.050600
vt 0.581000 0.050600
vt 0.575600 0.023200
vt 0.575700 0.022900
vt 0.569300 0.019100
vt 0.584000 0.051300
vt 0.580800 0.023600
vt 0.581000 0.023500
vt 0.570800 0.019000
vt 0.577000 0.019600
vt 0.232600 0.031000
vt 0.236500 0.033200
vt 0.584100 0.022900
vt 0.570800 0.018900
vt 0.577000 0.019500

# vertex normals
vn 0.000000 -1.000000 0.000000
vn -0.577350 -0.577350 0.577350
vn -0.707107 -0.707107 -0.000000
vn 0.000000 -0.707107 0.707107
vn 0.577350 0.577350 0.577350
vn 0.301511 -0.904534 -0.301511
vn 0.000000 -0.707107 -0.707107
vn -0.707107 0.000000 0.707107
vn -1.000000 0.000000 0.000000
vn -0.301511 -0.904534 -0.301511
vn -0.577350 0.577350 0.577350
vn 0.000000 0.000000 1.000000
vn -0.707107 0.707107 0.000000
vn 0.000000 0.707107 0.707107
vn 0.301511 0.904534 -0.301511
vn 0.707107 0.707107 0.000000
vn -0.577350 -0.577350 -0.577350
vn 0.577350 -0.577350 0.577350
vn 0.707107 -0.707107 0.000000
vn 0.000000 0.707107 -0.707107
vn 0.577350 0.577350 -0.577350
vn -0.707107 0.000000 -0.707107
vn 0.000000 0.000000 -1.000000
vn 1.000000 0.000000 0.000000
vn 0.707107 0.000000 0.707107
vn 0.000000 1.000000 0.000000
vn -0.577350 0.577350 -0.577350
vn 0.301511 0.904534 0.301511
vn 0.577350 -0.577350 -0.577350
vn -0.301511 0.904534 -0.301511
vn -0.301511 0.904534 0.301511
vn 0.707107 0.000000 -0.707107

# Mesh
g Box001
usemtl UnwrapChecker
f 1/1/1 2/2/1 3/3/1
f 3/3/1 4/4/1 1/1/1
f 1/1/1 4/4/1 5/5/2
f 5/5/2 6/6/3 1/1/1
f 7/7/1 8/8/1 2/2/1
f 2/2/1 1/1/1 7/7/1
f 9/9/4 2/2/1 10/10/1
f 10/10/1 11/11/4 9/9/4
f 2/2/1 9/9/4 12/12/5
f 2/2/1 12/12/5 13/13/6
f 13/13/6 14/14/7 15/15/7
f 15/15/7 16/16/1 13/13/6
f 3/3/1 2/2/1 13/13/6
f 13/13/6 16/16/1 3/3/1
f 5/5/2 4/4/1 3/3/1
f 3/3/1 17/17/4 5/5/2
f 5/5/2 18/18/8 19/19/9
f 19/19/9 6/6/3 5/5/2
f 1/1/1 6/6/3 20/20/3
f 20/20/3 7/7/1 1/1/1
f 21/21/1 22/22/1 8/8/1
f 8/8/1 7/7/1 21/21/1
f 8/8/1 23/23/1 10/10/1
f 10/10/1 2/2/1 8/8/1
f 24/24/10 25/25/1 26/26/1
f 26/26/1 16/27/1 24/24/10
f 27/28/7 16/27/1 15/29/7
f 15/29/7 28/30/7 27/28/7
f 16/27/1 27/28/7 24/24/10
f 25/25/1 24/24/10 29/31/11
f 25/25/1 29/31/11 10/10/1
f 30/32/4 10/10/1 29/31/11
f 29/31/11 31/33/4 30/32/4
f 10/10/1 30/32/4 11/11/4
f 16/16/1 32/34/4 17/17/4
f 17/17/4 3/3/1 16/16/1
f 17/17/4 33/35/12 18/18/8
f 18/18/8 5/5/2 17/17/4
f 18/36/8 34/37/11 35/38/13
f 35/38/13 19/39/9 18/36/8
f 6/6/3 19/19/9 36/40/9
f 36/40/9 20/20/3 6/6/3
f 7/7/1 20/20/3 37/41/3
f 37/41/3 21/21/1 7/7/1
f 38/42/1 39/43/1 22/22/1
f 22/22/1 21/21/1 38/42/1
f 22/22/1 40/44/1 23/23/1
f 23/23/1 8/8/1 22/22/1
f 23/23/1 41/45/1 25/25/1
f 25/25/1 10/10/1 23/23/1
f 25/25/1 42/46/1 43/47/1
f 43/47/1 26/26/1 25/25/1
f 26/26/1 44/48/4 32/49/4
f 32/49/4 16/27/1 26/26/1
f 32/34/4 45/50/12 33/35/12
f 33/35/12 17/17/4 32/34/4
f 33/51/12 46/52/14 34/37/11
f 34/37/11 18/36/8 33/51/12
f 34/37/11 47/53/15 48/54/16
f 48/54/16 35/38/13 34/37/11
f 19/39/9 35/38/13 49/55/13
f 49/55/13 36/56/9 19/39/9
f 20/20/3 36/40/9 50/57/9
f 50/57/9 37/41/3 20/20/3
f 51/58/17 38/42/1 21/21/1
f 21/21/1 37/41/3 51/58/17
f 39/43/1 38/42/1 51/58/17
f 51/58/17 52/59/7 39/43/1
f 39/43/1 53/60/1 40/44/1
f 40/44/1 22/22/1 39/43/1
f 40/44/1 54/61/1 41/45/1
f 41/45/1 23/23/1 40/44/1
f 41/45/1 55/62/1 42/46/1
f 42/46/1 25/25/1 41/45/1
f 56/63/18 43/47/1 42/46/1
f 42/46/1 57/64/19 56/63/18
f 26/26/1 43/47/1 56/63/18
f 56/63/18 44/48/4 26/26/1
f 44/48/4 58/65/12 45/66/12
f 45/66/12 32/49/4 44/48/4
f 45/67/12 59/68/14 46/52/14
f 46/52/14 33/51/12 45/67/12
f 60/69/20 47/53/15 34/37/11
f 34/37/11 46/52/14 60/69/20
f 61/70/16 48/54/16 47/53/15
f 47/53/15 62/71/21 61/70/16
f 63/72/16 49/55/13 35/38/13
f 35/38/13 48/54/16 63/72/16
f 36/56/9 49/55/13 64/73/13
f 64/73/13 50/74/9 36/56/9
f 37/41/3 50/57/9 65/75/22
f 65/75/22 51/58/17 37/41/3
f 51/58/17 65/75/22 66/76/23
f 66/76/23 52/59/7 51/58/17
f 39/43/1 52/59/7 67/77/7
f 67/77/7 53/60/1 39/43/1
f 53/60/1 68/78/1 54/61/1
f 54/61/1 40/44/1 53/60/1
f 54/61/1 69/79/1 55/62/1
f 55/62/1 41/45/1 54/61/1
f 55/62/1 70/80/19 57/64/19
f 57/64/19 42/46/1 55/62/1
f 57/64/19 71/81/24 72/82/25
f 72/82/25 56/63/18 57/64/19
f 56/63/18 72/82/25 58/65/12
f 58/65/12 44/48/4 56/63/18
f 58/83/12 73/84/14 59/68/14
f 59/68/14 45/67/12 58/83/12
f 60/69/20 46/52/14 59/68/14
f 59/68/14 74/85/20 60/69/20
f 62/71/21 47/53/15 60/69/20
f 60/69/20 75/86/20 62/71/21
f 75/87/20 76/88/26 61/89/16
f 61/89/16 62/90/21 75/87/20
f 77/91/16 63/72/16 48/54/16
f 48/54/16 61/70/16 77/91/16
f 78/92/16 64/73/13 49/55/13
f 49/55/13 63/72/16 78/92/16
f 50/74/9 64/73/13 79/93/27
f 79/93/27 65/94/22 50/74/9
f 65/94/22 79/93/27 80/95/20
f 80/95/20 66/96/23 65/94/22
f 52/59/7 66/76/23 81/97/23
f 81/97/23 67/77/7 52/59/7
f 53/60/1 67/77/7 82/98/7
f 82/98/7 68/78/1 53/60/1
f 68/78/1 83/99/1 69/79/1
f 69/79/1 54/61/1 68/78/1
f 69/79/1 84/100/19 70/80/19
f 70/80/19 55/62/1 69/79/1
f 70/80/19 85/101/24 71/81/24
f 71/81/24 57/64/19 70/80/19
f 71/102/24 86/103/16 87/104/5
f 87/104/5 72/105/25 71/102/24
f 72/106/25 87/107/5 73/84/14
f 73/84/14 58/83/12 72/106/25
f 74/85/20 59/68/14 73/84/14
f 73/84/14 88/108/20 74/85/20
f 75/86/20 60/69/20 74/85/20
f 74/85/20 89/109/20 75/86/20
f 90/110/15 89/111/20 91/112/20
f 91/112/20 92/113/20 90/110/15
f 93/114/18 94/115/14 95/116/14
f 95/116/14 96/117/26 93/114/18
f 93/114/18 96/117/26 76/88/26
f 93/114/18 76/88/26 90/110/15
f 75/87/20 89/111/20 90/110/15
f 90/110/15 76/88/26 75/87/20
f 76/88/26 97/118/26 77/119/16
f 77/119/16 61/89/16 76/88/26
f 98/120/16 78/92/16 63/72/16
f 63/72/16 77/91/16 98/120/16
f 78/92/16 99/121/28 79/93/27
f 79/93/27 64/73/13 78/92/16
f 79/93/27 99/121/28 100/122/14
f 100/122/14 80/95/20 79/93/27
f 66/96/23 80/95/20 101/123/20
f 101/123/20 81/124/23 66/96/23
f 67/77/7 81/97/23 102/125/23
f 102/125/23 82/98/7 67/77/7
f 103/126/29 83/99/1 68/78/1
f 68/78/1 82/98/7 103/126/29
f 69/79/1 83/99/1 103/126/29
f 103/126/29 84/100/19 69/79/1
f 84/100/19 104/127/24 85/101/24
f 85/101/24 70/80/19 84/100/19
f 85/128/24 105/129/16 86/103/16
f 86/103/16 71/102/24 85/128/24
f 106/130/13 107/131/30 87/104/5
f 87/104/5 86/103/16 106/130/13
f 87/107/5 107/132/30 88/108/20
f 88/108/20 73/84/14 87/107/5
f 89/109/20 74/85/20 88/108/20
f 88/108/20 108/133/20 89/109/20
f 109/134/14 110/135/26 96/117/26
f 96/117/26 95/116/14 109/134/14
f 111/136/31 110/135/26 109/134/14
f 109/134/14 112/137/14 111/136/31
f 113/138/30 108/139/20 110/135/26
f 110/135/26 111/136/31 113/138/30
f 108/139/20 113/138/30 114/140/20
f 108/139/20 114/140/20 115/141/20
f 89/142/20 108/139/20 115/141/20
f 115/141/20 91/143/20 89/142/20
f 96/117/26 116/144/26 97/118/26
f 97/118/26 76/88/26 96/117/26
f 97/118/26 117/145/26 98/146/16
f 98/146/16 77/119/16 97/118/26
f 118/147/5 99/121/28 78/92/16
f 78/92/16 98/120/16 118/147/5
f 119/148/14 100/122/14 99/121/28
f 99/121/28 118/147/5 119/148/14
f 120/149/14 101/123/20 80/95/20
f 80/95/20 100/122/14 120/149/14
f 81/124/23 101/123/20 121/150/20
f 121/150/20 102/151/23 81/124/23
f 82/98/7 102/125/23 122/152/32
f 122/152/32 103/126/29 82/98/7
f 103/126/29 122/152/32 104/127/24
f 104/127/24 84/100/19 103/126/29
f 104/153/24 123/154/16 105/129/16
f 105/129/16 85/128/24 104/153/24
f 106/130/13 86/103/16 105/129/16
f 105/129/16 124/155/13 106/130/13
f 125/156/27 107/131/30 106/130/13
f 106/130/13 126/157/13 125/156/27
f 108/133/20 88/108/20 107/132/30
f 107/132/30 125/158/27 108/133/20
f 125/159/27 126/160/13 110/135/26
f 110/135/26 108/139/20 125/159/27
f 110/135/26 127/161/26 116/144/26
f 116/144/26 96/117/26 110/135/26
f 116/144/26 128/162/26 117/145/26
f 117/145/26 97/118/26 116/144/26
f 117/145/26 119/163/14 118/164/5
f 118/164/5 98/146/16 117/145/26
f 129/165/14 120/149/14 100/122/14
f 100/122/14 119/148/14 129/165/14
f 130/166/14 121/150/20 101/123/20
f 101/123/20 120/149/14 130/166/14
f 102/151/23 121/150/20 131/167/21
f 131/167/21 122/168/32 102/151/23
f 122/168/32 131/167/21 123/154/16
f 123/154/16 104/153/24 122/168/32
f 124/155/13 105/129/16 123/154/16
f 123/154/16 132/169/13 124/155/13
f 126/157/13 106/130/13 124/155/13
f 124/155/13 133/170/13 126/157/13
f 126/160/13 133/171/13 127/161/26
f 127/161/26 110/135/26 126/160/13
f 127/161/26 134/172/26 128/162/26
f 128/162/26 116/144/26 127/161/26
f 128/162/26 129/173/14 119/163/14
f 119/163/14 117/145/26 128/162/26
f 135/174/14 130/166/14 120/149/14
f 120/149/14 129/165/14 135/174/14
f 130/166/14 136/175/31 131/167/21
f 131/167/21 121/150/20 130/166/14
f 131/167/21 136/175/31 132/169/13
f 132/169/13 123/154/16 131/167/21
f 133/170/13 124/155/13 132/169/13
f 132/169/13 137/176/13 133/170/13
f 133/171/13 137/177/13 134/172/26
f 134/172/26 127/161/26 133/171/13
f 134/172/26 135/178/14 129/173/14
f 129/173/14 128/162/26 134/172/26
f 138/179/11 136/175/31 130/166/14
f 130/166/14 135/174/14 138/179/11
f 137/176/13 132/169/13 136/175/31
f 136/175/31 138/179/11 137/176/13
f 137/177/13 138/180/11 135/178/14
f 135/178/14 134/172/26 137/177/13
f 12/181/5 9/182/4 139/183/12
f 139/183/12 140/184/25 12/181/5
f 13/185/6 12/181/5 140/184/25
f 140/184/25 141/186/32 13/185/6
f 140/184/25 139/183/12 142/187/12
f 142/187/12 143/188/25 140/184/25
f 9/182/4 11/189/4 30/190/4
f 30/190/4 144/191/12 9/182/4
f 9/182/4 144/191/12 139/183/12
f 14/192/7 13/185/6 141/186/32
f 141/186/32 145/193/23 14/192/7
f 143/188/25 146/194/32 141/186/32
f 141/186/32 140/184/25 143/188/25
f 94/187/14 93/188/18 143/188/25
f 143/188/25 142/187/12 94/187/14
f 139/183/12 144/191/12 147/195/12
f 147/195/12 142/187/12 139/183/12
f 30/190/4 31/196/4 148/197/12
f 148/197/12 144/191/12 30/190/4
f 15/198/7 14/192/7 145/193/23
f 15/198/7 145/193/23 28/199/7
f 28/199/7 145/193/23 149/200/23
f 141/186/32 146/194/32 150/201/23
f 150/201/23 145/193/23 141/186/32
f 93/188/18 90/202/15 146/194/32
f 146/194/32 143/188/25 93/188/18
f 95/203/14 142/187/12 147/195/12
f 147/195/12 109/195/14 95/203/14
f 142/187/12 95/203/14 94/187/14
f 144/191/12 148/197/12 151/204/12
f 151/204/12 147/195/12 144/191/12
f 31/196/4 29/205/11 152/206/8
f 152/206/8 148/197/12 31/196/4
f 27/207/7 28/199/7 149/200/23
f 149/200/23 153/208/23 27/207/7
f 145/193/23 150/201/23 154/209/23
f 154/209/23 149/200/23 145/193/23
f 90/202/15 92/201/20 150/201/23
f 150/201/23 146/194/32 90/202/15
f 112/204/14 109/195/14 147/195/12
f 147/195/12 151/204/12 112/204/14
f 148/197/12 152/206/8 155/210/8
f 155/210/8 151/204/12 148/197/12
f 29/205/11 24/211/10 156/212/22
f 156/212/22 152/206/8 29/205/11
f 24/211/10 27/207/7 153/208/23
f 153/208/23 156/212/22 24/211/10
f 149/200/23 154/213/23 157/214/23
f 157/214/23 153/208/23 149/200/23
f 115/215/20 150/216/23 92/113/20
f 92/113/20 91/112/20 115/215/20
f 150/216/23 115/215/20 154/215/23
f 111/210/31 112/204/14 151/204/12
f 151/204/12 155/210/8 111/210/31
f 152/206/8 156/212/22 158/217/22
f 158/217/22 155/210/8 152/206/8
f 153/208/23 157/214/23 158/217/22
f 158/217/22 156/212/22 153/208/23
f 115/218/20 114/219/20 157/214/23
f 157/214/23 154/213/23 115/218/20
f 113/217/30 111/210/31 155/210/8
f 155/210/8 158/217/22 113/217/30
f 114/219/20 113/217/30 158/217/22
f 158/217/22 157/214/23 114/219/20
