# 3ds Max Wavefront OBJ Exporter v0.99 - (c)2007 guruware
# File Created: 14.12.2024 17:48:37

mtllib PUP.mtl

#
# object Box018
#

v  -1.4313 0.0000 1.9153
v  -1.4313 0.0000 -1.9153
v  1.4313 0.0000 -1.9153
v  1.4313 0.0000 1.9153
v  -1.4313 0.0119 1.9153
v  1.4313 0.0119 1.9153
v  1.4313 0.0119 -1.9153
v  -1.4313 0.0119 -1.9153
v  -1.4843 0.0000 1.9683
v  1.4843 0.0000 1.9683
v  1.4843 0.0119 1.9683
v  -1.4843 0.0119 1.9683
v  1.4843 0.0000 -1.9683
v  1.4843 0.0119 -1.9683
v  -1.4843 0.0000 -1.9683
v  -1.4843 0.0119 -1.9683
v  1.4313 2.0089 1.9153
v  -1.4313 2.0089 1.9153
v  -1.4843 2.0089 1.9683
v  1.4843 2.0089 1.9683
v  -1.4313 2.0089 -1.9153
v  -1.4843 2.0089 -1.9683
v  1.4313 2.0089 -1.9153
v  1.4843 2.0089 -1.9683
# 24 vertices

vn 0.0000 -1.0000 -0.0000
vn 0.5774 0.5774 -0.5774
vn -0.5774 0.5774 -0.5774
vn -0.5774 0.5774 0.5774
vn 0.5774 0.5774 0.5774
vn -0.5774 -0.5774 0.5774
vn 0.5774 -0.5774 0.5774
vn 0.7071 0.0000 0.7071
vn -0.7071 0.0000 0.7071
vn 0.5774 -0.5774 -0.5774
vn 0.7071 0.0000 -0.7071
vn -0.5774 -0.5774 -0.5774
vn -0.7071 0.0000 -0.7071
vn -0.3015 0.9045 -0.3015
vn 0.3015 0.9045 -0.3015
vn 0.3015 0.9045 0.3015
vn -0.3015 0.9045 0.3015
# 17 vertex normals

vt 0.9768 0.9109 0.0000
vt 0.6331 0.9064 0.0000
vt 0.6365 0.6495 0.0000
vt 0.9802 0.6541 0.0000
vt 0.9757 0.3855 0.0000
vt 0.9802 0.6423 0.0000
vt 0.6365 0.6484 0.0000
vt 0.6320 0.3916 0.0000
vt 0.3701 0.0328 0.0000
vt 0.6318 0.0230 0.0000
vt 0.6319 0.0241 0.0000
vt 0.3701 0.0339 0.0000
vt 0.6321 0.7799 0.0000
vt 0.2817 0.7756 0.0000
vt 0.2817 0.7746 0.0000
vt 0.6321 0.7788 0.0000
vt 0.0198 0.7760 0.0000
vt 0.0198 0.7749 0.0000
vt 0.0198 0.0412 0.0000
vt 0.0198 0.0423 0.0000
vt 0.0245 0.0363 0.0000
vt 0.3694 0.0286 0.0000
vt 0.6269 0.0184 0.0000
vt 0.6273 0.7846 0.0000
vt 0.2823 0.7799 0.0000
vt 0.0246 0.7807 0.0000
vt 0.6333 0.2105 0.0000
vt 0.3747 0.2170 0.0000
vt 0.3751 0.2128 0.0000
vt 0.6380 0.2055 0.0000
vt 0.0299 0.2277 0.0000
vt 0.0250 0.2231 0.0000
vt 0.0252 0.5886 0.0000
vt 0.2838 0.5914 0.0000
vt 0.2832 0.5956 0.0000
vt 0.0203 0.5934 0.0000
vt 0.6288 0.5931 0.0000
vt 0.6335 0.5979 0.0000
vt 0.6379 0.3903 0.0000
vt 0.3800 0.3971 0.0000
vt 0.0352 0.4077 0.0000
vt 0.0270 0.4087 0.0000
vt 0.2850 0.4112 0.0000
vt 0.6300 0.4131 0.0000
# 44 texture coords

o Box018
g Box018
usemtl wire_092017054
s 2
f 1/1/1 2/2/1 3/3/1 4/4/1 
s 4
f 5/5/2 6/6/3 7/7/4 8/8/5 
s 8
f 9/9/6 10/10/7 11/11/8 12/12/9 
s 16
f 10/13/7 13/14/10 14/15/11 11/16/8 
s 32
f 13/14/10 15/17/12 16/18/13 14/15/11 
s 64
f 15/19/12 9/9/6 12/12/9 16/20/13 
s off
f 2/21/1 1/22/1 9/9/6 15/19/12 
f 1/22/1 4/23/1 10/10/7 9/9/6 
f 4/24/1 3/25/1 13/14/10 10/13/7 
f 3/25/1 2/26/1 15/17/12 13/14/10 
f 17/27/14 18/28/15 19/29/4 20/30/5 
f 18/28/15 21/31/16 22/32/3 19/29/4 
f 21/33/16 23/34/17 24/35/2 22/36/3 
f 23/34/17 17/37/14 20/38/5 24/35/2 
f 6/39/3 5/40/2 18/28/15 17/27/14 
f 5/40/2 8/41/5 21/31/16 18/28/15 
f 8/42/5 7/43/4 23/34/17 21/33/16 
f 7/43/4 6/44/3 17/37/14 23/34/17 
f 12/12/9 11/11/8 20/30/5 19/29/4 
f 11/16/8 14/15/11 24/35/2 20/38/5 
f 14/15/11 16/18/13 22/36/3 24/35/2 
f 16/20/13 12/12/9 19/29/4 22/32/3 
# 22 polygons

