# 3ds Max Wavefront OBJ Exporter v0.99 - (c)2007 guruware
# File Created: 14.12.2024 20:18:59

mtllib shody.mtl

#
# object Box028
#

v  -7.9387 0.0000 18.9737
v  -7.9387 0.0000 14.2302
v  7.9387 0.0000 14.2302
v  7.9387 0.0000 18.9737
v  -7.9387 0.0000 9.4868
v  7.9387 0.0000 9.4868
v  -7.9387 0.0000 4.7434
v  7.9387 0.0000 4.7434
v  -7.9387 0.0000 -0.0000
v  7.9387 0.0000 -0.0000
v  -7.9387 0.0000 -4.7434
v  7.9387 0.0000 -4.7434
v  -7.9387 0.0000 -9.4868
v  7.9387 0.0000 -9.4868
v  -7.9387 0.0000 -14.2302
v  7.9387 0.0000 -14.2302
v  -7.9387 0.0000 -18.9737
v  7.9387 0.0000 -18.9737
v  -7.9387 2.8350 18.9737
v  7.9387 2.8350 18.9737
v  7.9387 2.8350 14.2302
v  -7.9387 2.8350 14.2302
v  -7.9387 5.5891 14.2302
v  7.9387 5.5891 14.2302
v  7.9387 5.5891 9.4868
v  -7.9387 5.5891 9.4868
v  -7.9387 8.3431 9.4868
v  7.9387 8.3431 9.4868
v  7.9387 8.3431 4.7434
v  -7.9387 8.3431 4.7434
v  -7.9387 11.0971 4.7434
v  7.9387 11.0971 4.7434
v  7.9387 11.0971 -0.0000
v  -7.9387 11.0971 -0.0000
v  -7.9387 13.8511 -0.0000
v  7.9387 13.8511 -0.0000
v  7.9387 13.8511 -4.7434
v  -7.9387 13.8511 -4.7434
v  -7.9387 16.6052 -4.7434
v  7.9387 16.6052 -4.7434
v  7.9387 16.6052 -9.4868
v  -7.9387 16.6052 -9.4868
v  -7.9387 19.3592 -9.4868
v  7.9387 19.3592 -9.4868
v  7.9387 19.3592 -14.2302
v  -7.9387 19.3592 -14.2302
v  7.9387 19.3592 -18.9737
v  -7.9387 19.3592 -18.9737
v  7.9387 2.8350 9.4868
v  7.9387 2.8350 4.7434
v  7.9387 2.8350 -0.0000
v  7.9387 2.8350 -4.7434
v  7.9387 2.8350 -9.4868
v  7.9387 2.8350 -14.2302
v  7.9387 2.8350 -18.9737
v  -7.9387 2.8350 -18.9737
v  -7.9387 2.8350 -14.2302
v  -7.9387 2.8350 -9.4868
v  -7.9387 2.8350 -4.7434
v  -7.9387 2.8350 -0.0000
v  -7.9387 2.8350 4.7434
v  -7.9387 2.8350 9.4868
v  7.9387 5.5891 4.7434
v  7.9387 5.5891 -0.0000
v  7.9387 5.5891 -4.7434
v  7.9387 5.5891 -9.4868
v  7.9387 5.5891 -14.2302
v  7.9387 5.5891 -18.9737
v  -7.9387 5.5891 -18.9737
v  -7.9387 5.5891 -14.2302
v  -7.9387 5.5891 -9.4868
v  -7.9387 5.5891 -4.7434
v  -7.9387 5.5891 -0.0000
v  -7.9387 5.5891 4.7434
v  7.9387 8.3431 -0.0000
v  7.9387 8.3431 -4.7434
v  7.9387 8.3431 -9.4868
v  7.9387 8.3431 -14.2302
v  7.9387 8.3431 -18.9737
v  -7.9387 8.3431 -18.9737
v  -7.9387 8.3431 -14.2302
v  -7.9387 8.3431 -9.4868
v  -7.9387 8.3431 -4.7434
v  -7.9387 8.3431 -0.0000
v  7.9387 11.0971 -4.7434
v  7.9387 11.0971 -9.4868
v  7.9387 11.0971 -14.2302
v  7.9387 11.0971 -18.9737
v  -7.9387 11.0971 -18.9737
v  -7.9387 11.0971 -14.2302
v  -7.9387 11.0971 -9.4868
v  -7.9387 11.0971 -4.7434
v  7.9387 13.8511 -9.4868
v  7.9387 13.8511 -14.2302
v  7.9387 13.8511 -18.9737
v  -7.9387 13.8511 -18.9737
v  -7.9387 13.8511 -14.2302
v  -7.9387 13.8511 -9.4868
v  7.9387 16.6052 -14.2302
v  7.9387 16.6052 -18.9737
v  -7.9387 16.6052 -18.9737
v  -7.9387 16.6052 -14.2302
# 102 vertices

vn -0.5774 -0.5774 0.5774
vn -0.7071 -0.7071 -0.0000
vn 0.7071 -0.7071 -0.0000
vn 0.5774 -0.5774 0.5774
vn -0.5774 -0.5774 -0.5774
vn 0.5774 -0.5774 -0.5774
vn -0.5774 0.5774 0.5774
vn 0.5774 0.5774 0.5774
vn 0.9045 0.3015 0.3015
vn -0.9045 0.3015 0.3015
vn 0.7071 0.7071 -0.0000
vn -0.7071 0.7071 -0.0000
vn 0.5774 0.5774 -0.5774
vn -0.5774 0.5774 -0.5774
vn 1.0000 0.0000 -0.0000
vn 0.7071 0.0000 -0.7071
vn -0.7071 0.0000 -0.7071
vn -1.0000 0.0000 -0.0000
# 18 vertex normals

vt 0.4037 0.4910 0.0000
vt 0.4033 0.4299 0.0000
vt 0.7909 0.4273 0.0000
vt 0.7913 0.4883 0.0000
vt 0.4029 0.3689 0.0000
vt 0.7905 0.3662 0.0000
vt 0.4025 0.3078 0.0000
vt 0.7901 0.3052 0.0000
vt 0.4021 0.2468 0.0000
vt 0.7897 0.2442 0.0000
vt 0.4017 0.1858 0.0000
vt 0.7892 0.1831 0.0000
vt 0.4013 0.1247 0.0000
vt 0.7888 0.1221 0.0000
vt 0.4008 0.0637 0.0000
vt 0.7884 0.0610 0.0000
vt 0.4004 0.0026 0.0000
vt 0.7880 0.0000 0.0000
vt 0.0010 0.0474 0.0000
vt 0.3885 0.0365 0.0000
vt 0.3902 0.0975 0.0000
vt 0.0027 0.1084 0.0000
vt 0.0037 0.1438 0.0000
vt 0.3912 0.1329 0.0000
vt 0.3929 0.1939 0.0000
vt 0.0055 0.2048 0.0000
vt 0.0065 0.2403 0.0000
vt 0.3939 0.2294 0.0000
vt 0.3956 0.2904 0.0000
vt 0.0082 0.3013 0.0000
vt 0.0092 0.3367 0.0000
vt 0.3966 0.3258 0.0000
vt 0.3983 0.3868 0.0000
vt 0.0109 0.3977 0.0000
vt 0.0119 0.4332 0.0000
vt 0.3993 0.4222 0.0000
vt 0.4010 0.4833 0.0000
vt 0.0136 0.4942 0.0000
vt 0.0146 0.5296 0.0000
vt 0.4020 0.5187 0.0000
vt 0.4038 0.5797 0.0000
vt 0.0163 0.5906 0.0000
vt 0.0173 0.6260 0.0000
vt 0.4048 0.6151 0.0000
vt 0.4065 0.6762 0.0000
vt 0.0191 0.6871 0.0000
vt 0.4082 0.7372 0.0000
vt 0.0208 0.7481 0.0000
vt 0.0000 0.0109 0.0000
vt 0.3874 0.0000 0.0000
vt 0.4118 0.7462 0.0000
vt 0.4729 0.7468 0.0000
vt 0.4725 0.7833 0.0000
vt 0.4115 0.7827 0.0000
vt 0.5339 0.7474 0.0000
vt 0.5336 0.7838 0.0000
vt 0.5949 0.7479 0.0000
vt 0.5946 0.7844 0.0000
vt 0.6560 0.7485 0.0000
vt 0.6556 0.7850 0.0000
vt 0.7170 0.7491 0.0000
vt 0.7167 0.7856 0.0000
vt 0.7781 0.7497 0.0000
vt 0.7777 0.7862 0.0000
vt 0.8391 0.7503 0.0000
vt 0.8387 0.7868 0.0000
vt 0.9001 0.7509 0.0000
vt 0.8998 0.7874 0.0000
vt 0.4152 0.9862 0.0000
vt 0.0278 0.9971 0.0000
vt 0.0268 0.9606 0.0000
vt 0.4142 0.9497 0.0000
vt 0.5073 0.4968 0.0000
vt 0.5683 0.4953 0.0000
vt 0.5692 0.5318 0.0000
vt 0.5082 0.5333 0.0000
vt 0.6293 0.4937 0.0000
vt 0.6302 0.5302 0.0000
vt 0.6903 0.4922 0.0000
vt 0.6913 0.5287 0.0000
vt 0.7514 0.4907 0.0000
vt 0.7523 0.5271 0.0000
vt 0.8124 0.4891 0.0000
vt 0.8133 0.5256 0.0000
vt 0.8734 0.4876 0.0000
vt 0.8743 0.5240 0.0000
vt 0.9344 0.4860 0.0000
vt 0.9354 0.5225 0.0000
vt 0.9955 0.4845 0.0000
vt 0.9964 0.5209 0.0000
vt 0.5332 0.8193 0.0000
vt 0.4722 0.8187 0.0000
vt 0.5942 0.8199 0.0000
vt 0.6553 0.8205 0.0000
vt 0.7163 0.8210 0.0000
vt 0.7774 0.8216 0.0000
vt 0.8384 0.8222 0.0000
vt 0.8994 0.8228 0.0000
vt 0.0258 0.9252 0.0000
vt 0.4132 0.9143 0.0000
vt 0.5701 0.5672 0.0000
vt 0.5091 0.5687 0.0000
vt 0.6311 0.5656 0.0000
vt 0.6922 0.5641 0.0000
vt 0.7532 0.5626 0.0000
vt 0.8142 0.5610 0.0000
vt 0.8752 0.5595 0.0000
vt 0.9363 0.5579 0.0000
vt 0.5939 0.8553 0.0000
vt 0.5329 0.8547 0.0000
vt 0.6549 0.8559 0.0000
vt 0.7160 0.8565 0.0000
vt 0.7770 0.8571 0.0000
vt 0.8381 0.8577 0.0000
vt 0.8991 0.8582 0.0000
vt 0.0248 0.8898 0.0000
vt 0.4122 0.8789 0.0000
vt 0.5710 0.6026 0.0000
vt 0.5100 0.6042 0.0000
vt 0.6320 0.6011 0.0000
vt 0.6931 0.5995 0.0000
vt 0.7541 0.5980 0.0000
vt 0.8151 0.5964 0.0000
vt 0.8761 0.5949 0.0000
vt 0.6546 0.8913 0.0000
vt 0.5936 0.8907 0.0000
vt 0.7156 0.8919 0.0000
vt 0.7767 0.8925 0.0000
vt 0.8377 0.8931 0.0000
vt 0.8988 0.8937 0.0000
vt 0.0238 0.8544 0.0000
vt 0.4112 0.8434 0.0000
vt 0.5719 0.6381 0.0000
vt 0.5109 0.6396 0.0000
vt 0.6329 0.6365 0.0000
vt 0.6940 0.6350 0.0000
vt 0.7550 0.6334 0.0000
vt 0.8160 0.6319 0.0000
vt 0.7153 0.9274 0.0000
vt 0.6543 0.9268 0.0000
vt 0.7763 0.9279 0.0000
vt 0.8374 0.9285 0.0000
vt 0.8984 0.9291 0.0000
vt 0.0228 0.8189 0.0000
vt 0.4102 0.8080 0.0000
vt 0.5728 0.6735 0.0000
vt 0.5118 0.6750 0.0000
vt 0.6338 0.6719 0.0000
vt 0.6949 0.6704 0.0000
vt 0.7559 0.6688 0.0000
vt 0.7760 0.9634 0.0000
vt 0.7150 0.9628 0.0000
vt 0.8370 0.9640 0.0000
vt 0.8981 0.9646 0.0000
vt 0.0218 0.7835 0.0000
vt 0.4092 0.7726 0.0000
vt 0.5737 0.7089 0.0000
vt 0.5127 0.7105 0.0000
vt 0.6347 0.7074 0.0000
vt 0.6958 0.7058 0.0000
vt 0.8367 0.9994 0.0000
vt 0.7757 0.9988 0.0000
vt 0.8977 1.0000 0.0000
vt 0.5746 0.7443 0.0000
vt 0.5136 0.7459 0.0000
vt 0.6356 0.7428 0.0000
# 166 texture coords

o Box028
g Box028
usemtl wire_126093208
s 2
f 1/1/1 2/2/2 3/3/3 4/4/4 
f 2/2/2 5/5/2 6/6/3 3/3/3 
f 5/5/2 7/7/2 8/8/3 6/6/3 
f 7/7/2 9/9/2 10/10/3 8/8/3 
f 9/9/2 11/11/2 12/12/3 10/10/3 
f 11/11/2 13/13/2 14/14/3 12/12/3 
f 13/13/2 15/15/2 16/16/3 14/14/3 
f 15/15/2 17/17/5 18/18/6 16/16/3 
s 4
f 19/19/7 20/20/8 21/21/9 22/22/10 
f 23/23/7 24/24/8 25/25/9 26/26/10 
f 27/27/7 28/28/8 29/29/9 30/30/10 
f 31/31/7 32/32/8 33/33/9 34/34/10 
f 35/35/7 36/36/8 37/37/9 38/38/10 
f 39/39/7 40/40/8 41/41/9 42/42/10 
f 43/43/7 44/44/8 45/45/11 46/46/12 
f 46/46/12 45/45/11 47/47/13 48/48/14 
s 8
f 1/49/1 4/50/4 20/20/8 19/19/7 
s 16
f 4/51/4 3/52/3 21/53/9 20/54/8 
f 3/52/3 6/55/3 49/56/15 21/53/9 
f 6/55/3 8/57/3 50/58/15 49/56/15 
f 8/57/3 10/59/3 51/60/15 50/58/15 
f 10/59/3 12/61/3 52/62/15 51/60/15 
f 12/61/3 14/63/3 53/64/15 52/62/15 
f 14/63/3 16/65/3 54/66/15 53/64/15 
f 16/65/3 18/67/6 55/68/16 54/66/15 
s 32
f 18/69/6 17/70/5 56/71/17 55/72/16 
s 64
f 17/73/5 15/74/2 57/75/18 56/76/17 
f 15/74/2 13/77/2 58/78/18 57/75/18 
f 13/77/2 11/79/2 59/80/18 58/78/18 
f 11/79/2 9/81/2 60/82/18 59/80/18 
f 9/81/2 7/83/2 61/84/18 60/82/18 
f 7/83/2 5/85/2 62/86/18 61/84/18 
f 5/85/2 2/87/2 22/88/10 62/86/18 
f 2/87/2 1/89/1 19/90/7 22/88/10 
s off
f 22/22/10 21/21/9 24/24/8 23/23/7 
f 21/53/9 49/56/15 25/91/9 24/92/8 
f 49/56/15 50/58/15 63/93/15 25/91/9 
f 50/58/15 51/60/15 64/94/15 63/93/15 
f 51/60/15 52/62/15 65/95/15 64/94/15 
f 52/62/15 53/64/15 66/96/15 65/95/15 
f 53/64/15 54/66/15 67/97/15 66/96/15 
f 54/66/15 55/68/16 68/98/16 67/97/15 
f 55/72/16 56/71/17 69/99/17 68/100/16 
f 56/76/17 57/75/18 70/101/18 69/102/17 
f 57/75/18 58/78/18 71/103/18 70/101/18 
f 58/78/18 59/80/18 72/104/18 71/103/18 
f 59/80/18 60/82/18 73/105/18 72/104/18 
f 60/82/18 61/84/18 74/106/18 73/105/18 
f 61/84/18 62/86/18 26/107/10 74/106/18 
f 62/86/18 22/88/10 23/108/7 26/107/10 
f 26/26/10 25/25/9 28/28/8 27/27/7 
f 25/91/9 63/93/15 29/109/9 28/110/8 
f 63/93/15 64/94/15 75/111/15 29/109/9 
f 64/94/15 65/95/15 76/112/15 75/111/15 
f 65/95/15 66/96/15 77/113/15 76/112/15 
f 66/96/15 67/97/15 78/114/15 77/113/15 
f 67/97/15 68/98/16 79/115/16 78/114/15 
f 68/100/16 69/99/17 80/116/17 79/117/16 
f 69/102/17 70/101/18 81/118/18 80/119/17 
f 70/101/18 71/103/18 82/120/18 81/118/18 
f 71/103/18 72/104/18 83/121/18 82/120/18 
f 72/104/18 73/105/18 84/122/18 83/121/18 
f 73/105/18 74/106/18 30/123/10 84/122/18 
f 74/106/18 26/107/10 27/124/7 30/123/10 
f 30/30/10 29/29/9 32/32/8 31/31/7 
f 29/109/9 75/111/15 33/125/9 32/126/8 
f 75/111/15 76/112/15 85/127/15 33/125/9 
f 76/112/15 77/113/15 86/128/15 85/127/15 
f 77/113/15 78/114/15 87/129/15 86/128/15 
f 78/114/15 79/115/16 88/130/16 87/129/15 
f 79/117/16 80/116/17 89/131/17 88/132/16 
f 80/119/17 81/118/18 90/133/18 89/134/17 
f 81/118/18 82/120/18 91/135/18 90/133/18 
f 82/120/18 83/121/18 92/136/18 91/135/18 
f 83/121/18 84/122/18 34/137/10 92/136/18 
f 84/122/18 30/123/10 31/138/7 34/137/10 
f 34/34/10 33/33/9 36/36/8 35/35/7 
f 33/125/9 85/127/15 37/139/9 36/140/8 
f 85/127/15 86/128/15 93/141/15 37/139/9 
f 86/128/15 87/129/15 94/142/15 93/141/15 
f 87/129/15 88/130/16 95/143/16 94/142/15 
f 88/132/16 89/131/17 96/144/17 95/145/16 
f 89/134/17 90/133/18 97/146/18 96/147/17 
f 90/133/18 91/135/18 98/148/18 97/146/18 
f 91/135/18 92/136/18 38/149/10 98/148/18 
f 92/136/18 34/137/10 35/150/7 38/149/10 
f 38/38/10 37/37/9 40/40/8 39/39/7 
f 37/139/9 93/141/15 41/151/9 40/152/8 
f 93/141/15 94/142/15 99/153/15 41/151/9 
f 94/142/15 95/143/16 100/154/16 99/153/15 
f 95/145/16 96/144/17 101/155/17 100/156/16 
f 96/147/17 97/146/18 102/157/18 101/158/17 
f 97/146/18 98/148/18 42/159/10 102/157/18 
f 98/148/18 38/149/10 39/160/7 42/159/10 
f 42/42/10 41/41/9 44/44/8 43/43/7 
f 41/151/9 99/153/15 45/161/11 44/162/8 
f 99/153/15 100/154/16 47/163/13 45/161/11 
f 100/156/16 101/155/17 48/48/14 47/47/13 
f 101/158/17 102/157/18 46/164/12 48/165/14 
f 102/157/18 42/159/10 43/166/7 46/164/12 
# 100 polygons

