# 3ds Max Wavefront OBJ Exporter v0.99 - (c)2007 guruware
# File Created: 15.12.2024 13:19:21

mtllib wazon z kwiatami02.mtl

#
# object Cylinder001
#

v  -0.0000 0.0313 -0.0000
v  17.1140 0.0313 -16.0173
v  24.2028 0.0313 0.0000
v  23.0747 27.2915 -21.5962
v  32.6326 27.2915 0.0000
v  -0.0000 0.0313 -22.6519
v  -0.0000 27.2915 -30.5416
v  -17.1140 0.0313 -16.0173
v  -23.0747 27.2915 -21.5962
v  -24.2028 0.0313 0.0000
v  -32.6326 27.2915 0.0000
v  -17.1140 0.0313 16.0173
v  -23.0747 27.2915 21.5962
v  0.0000 0.0313 22.6519
v  0.0000 27.2915 30.5416
v  17.1140 0.0313 16.0173
v  23.0747 27.2915 21.5962
v  23.0747 34.5312 -21.5962
v  32.6326 34.5312 0.0000
v  -0.0000 34.5312 -30.5416
v  -23.0747 34.5312 -21.5962
v  -32.6326 34.5312 0.0000
v  -23.0747 34.5312 21.5962
v  0.0000 34.5312 30.5416
v  23.0747 34.5312 21.5962
v  8.1333 51.4102 8.6995
v  11.5023 51.4102 0.0000
v  8.1334 51.4102 -8.6995
v  -0.0390 51.4102 -12.2858
v  -8.0944 51.4102 -8.7168
v  -11.5023 51.4102 0.0000
v  -8.1333 51.4102 8.6995
v  0.0000 51.4102 12.3030
v  25.4061 47.9325 0.0000
v  17.9648 47.9325 -21.5962
v  14.5859 51.4102 -15.6013
v  20.6276 51.4102 0.0000
v  -0.0861 47.9325 -30.4987
v  -0.0699 51.4102 -22.0327
v  -17.8787 47.9325 -21.6390
v  -14.5161 51.4102 -15.6323
v  -25.4061 47.9325 0.0000
v  -20.6276 51.4102 0.0000
v  -17.9648 47.9325 21.5962
v  -14.5859 51.4102 15.6013
v  0.0000 47.9325 30.5416
v  0.0000 51.4102 22.0636
v  17.9648 47.9325 21.5962
v  14.5859 51.4102 15.6013
v  8.5267 84.4561 8.6997
v  12.0585 84.4561 0.0002
v  19.5441 96.3124 0.0002
v  14.0114 96.3124 13.6284
v  8.5267 84.4561 -8.6993
v  14.0062 96.3124 -13.6408
v  -0.0407 84.4561 -12.2856
v  -0.0543 96.3124 -19.5264
v  -8.4856 84.4561 -8.7166
v  -13.9583 96.3124 -13.6503
v  -12.0582 84.4561 0.0002
v  -19.5485 96.3124 -0.0111
v  -8.5264 84.4561 8.6997
v  -14.0111 96.3124 13.6284
v  0.0001 84.4561 12.3032
v  0.0001 96.3124 19.5498
v  13.8017 96.3124 -0.0007
v  9.8945 96.3124 9.6236
v  9.8908 96.3124 -9.6340
v  -0.0387 96.3124 -13.7904
v  -9.8578 96.3124 -9.6407
v  -13.8056 96.3124 -0.0087
v  -9.8951 96.3124 9.6236
v  -0.0003 96.3124 13.8053
v  8.1335 41.1136 8.6997
v  11.5024 41.1136 0.0002
v  9.4464 67.9549 0.0002
v  6.6797 67.9549 8.6997
v  8.1335 41.1136 -8.6993
v  6.6797 67.9549 -8.6993
v  -0.0388 41.1136 -12.2856
v  -0.0319 67.9549 -12.2856
v  -8.0942 41.1136 -8.7166
v  -6.6474 67.9549 -8.7166
v  -11.5022 41.1136 0.0002
v  -9.4462 67.9549 0.0002
v  -8.1332 41.1136 8.6997
v  -6.6794 67.9549 8.6997
v  0.0001 41.1136 12.3032
v  0.0001 67.9549 12.3032
v  13.8017 94.7063 -0.0007
v  9.8945 94.7063 9.6236
v  9.8908 94.7063 -9.6340
v  -0.0387 94.7063 -13.7904
v  -9.8578 94.7063 -9.6407
v  -13.8056 94.7063 -0.0087
v  -9.8951 94.7063 9.6236
v  -0.0003 94.7063 13.8053
v  -0.8821 53.1444 2.4839
v  -2.7494 53.6394 2.4839
v  -2.7494 53.6394 0.5907
v  -0.8821 53.1444 0.5907
v  10.2036 120.1547 2.4839
v  10.2036 120.1547 0.5907
v  8.3364 120.6497 0.5907
v  8.3364 120.6497 2.4839
v  4.8672 107.5628 2.4839
v  3.0000 108.0578 2.4839
v  3.0000 108.0578 0.5907
v  4.8672 107.5628 0.5907
v  -5.1716 63.8942 2.4839
v  -5.1716 63.8942 0.5907
v  -3.3044 64.3892 0.5907
v  -3.3044 64.3892 2.4839
v  -10.9210 127.2810 2.4839
v  -9.0538 127.7760 2.4839
v  -9.0538 127.7760 0.5907
v  -10.9210 127.2810 0.5907
v  -9.0538 118.8075 2.4839
v  -10.9210 118.3125 2.4839
v  -9.0538 118.8075 0.5907
v  -10.9210 118.3125 0.5907
v  -11.0062 127.6553 -13.8861
v  -15.5278 118.1775 -15.3578
v  -16.1357 115.6665 -5.0736
v  -18.5262 109.5791 3.2731
v  -14.9478 116.3523 10.6051
v  -12.8167 119.7427 20.4236
v  -8.6303 129.0270 17.4713
v  -4.1087 138.5048 18.9431
v  -3.5008 141.0158 8.6589
v  -1.1103 147.1032 0.3121
v  -4.6887 140.3299 -7.0198
v  -6.8198 136.9395 -16.8383
v  11.8354 114.5616 0.0674
v  9.5737 101.9889 -14.1956
v  7.5755 118.5106 -4.7267
v  -2.7283 123.2760 -20.1456
v  5.4913 125.5394 -3.0010
v  -2.5508 142.8774 -4.1570
v  7.6670 128.6191 3.5186
v  9.9287 141.1917 17.7816
v  11.9269 124.6701 8.3127
v  22.2307 119.9047 23.7316
v  14.0111 117.6413 6.5871
v  22.0532 100.3033 7.7430
# 145 vertices

vn 0.0000 -1.0000 -0.0000
vn 0.4654 -0.7357 -0.4920
vn 0.6777 -0.7353 -0.0000
vn 0.6848 -0.1400 -0.7152
vn 0.9896 -0.1440 0.0000
vn 0.0000 -0.7361 -0.6768
vn 0.0000 -0.1361 -0.9907
vn -0.4654 -0.7357 -0.4920
vn -0.6848 -0.1400 -0.7152
vn -0.6777 -0.7353 -0.0000
vn -0.9896 -0.1440 0.0000
vn -0.4654 -0.7357 0.4920
vn -0.6848 -0.1400 0.7152
vn 0.0000 -0.7361 0.6768
vn -0.0000 -0.1361 0.9907
vn 0.4654 -0.7357 0.4920
vn 0.6848 -0.1400 0.7152
vn 0.7039 0.1314 -0.6980
vn 0.9730 0.2310 -0.0000
vn 0.0008 0.0016 -1.0000
vn -0.7042 0.1327 -0.6975
vn -0.9730 0.2310 -0.0000
vn -0.7039 0.1314 0.6981
vn 0.0000 -0.0000 1.0000
vn 0.7039 0.1314 0.6980
vn 0.0000 1.0000 -0.0000
vn 0.7718 0.6359 -0.0000
vn 0.5766 0.5810 -0.5745
vn 0.2380 0.9528 -0.1885
vn 0.3720 0.9282 -0.0000
vn -0.0029 0.4953 -0.8687
vn -0.0004 0.9703 -0.2418
vn -0.5758 0.5821 -0.5741
vn -0.2377 0.9529 -0.1883
vn -0.7719 0.6358 -0.0012
vn -0.3722 0.9281 -0.0008
vn -0.5777 0.5813 0.5730
vn -0.2382 0.9528 0.1880
vn -0.0000 0.4940 0.8695
vn -0.0000 0.9704 0.2417
vn 0.5777 0.5813 0.5730
vn 0.2382 0.9528 0.1880
vn 0.6755 -0.3315 0.6586
vn 0.9293 -0.3694 0.0000
vn 0.9114 0.4114 -0.0000
vn 0.6516 0.4133 0.6360
vn 0.6744 -0.3317 -0.6597
vn 0.6507 0.4130 -0.6373
vn -0.0017 -0.2899 -0.9570
vn -0.0016 0.4156 -0.9095
vn -0.6745 -0.3310 -0.6599
vn -0.6505 0.4137 -0.6370
vn -0.9292 -0.3696 -0.0015
vn -0.9116 0.4111 -0.0015
vn -0.6755 -0.3315 0.6586
vn -0.6516 0.4133 0.6360
vn -0.0000 -0.2902 0.9570
vn -0.0000 0.4153 0.9097
vn -0.5969 0.8023 -0.0000
vn -0.4233 0.8042 -0.4173
vn -0.4221 0.8046 0.4176
vn 0.0010 0.8056 0.5924
vn 0.4230 0.8037 0.4184
vn 0.5962 0.8028 0.0010
vn 0.4232 0.8042 -0.4172
vn -0.0000 0.8061 -0.5918
vn 0.7293 0.0395 0.6830
vn 0.9971 0.0764 0.0000
vn 0.9992 -0.0412 0.0000
vn 0.7615 -0.0220 0.6478
vn 0.7281 0.0394 -0.6843
vn 0.7601 -0.0220 -0.6494
vn -0.0019 0.0000 -1.0000
vn -0.0019 -0.0000 -1.0000
vn -0.7282 0.0393 -0.6843
vn -0.7606 -0.0219 -0.6488
vn -0.9971 0.0764 -0.0016
vn -0.9991 -0.0412 -0.0014
vn -0.7293 0.0395 0.6830
vn -0.7615 -0.0220 0.6478
vn -0.0000 0.0000 1.0000
vn -1.0000 0.0000 -0.0000
vn -0.7121 0.0000 -0.7021
vn -0.7109 0.0000 0.7033
vn 0.0017 0.0000 1.0000
vn 0.7109 0.0000 0.7033
vn 1.0000 0.0000 0.0017
vn 0.7121 0.0000 -0.7021
vn -0.0000 0.0000 -1.0000
vn 0.4663 -0.6767 0.5697
vn -0.6674 -0.4596 0.5859
vn -0.6674 -0.4596 -0.5859
vn 0.4663 -0.6767 -0.5697
vn 0.7377 0.3613 0.5703
vn 0.7377 0.3613 -0.5703
vn -0.3566 0.7283 -0.5852
vn -0.3567 0.7283 0.5851
vn 0.6493 -0.1679 0.7418
vn -0.7139 0.1846 0.6755
vn -0.7140 0.1846 -0.6754
vn 0.6493 -0.1679 -0.7418
vn -0.4662 -0.6768 0.5697
vn -0.4662 -0.6768 -0.5697
vn 0.6674 -0.4597 -0.5859
vn 0.6674 -0.4597 0.5859
vn -0.6386 0.4914 0.5922
vn 0.5032 0.6540 0.5649
vn 0.5032 0.6540 -0.5649
vn -0.6386 0.4914 -0.5922
vn 0.6939 0.0366 0.7191
vn -0.7176 -0.0378 0.6955
vn 0.6939 0.0366 -0.7191
vn -0.7176 -0.0378 -0.6955
vn 0.9044 -0.4237 -0.0500
vn -0.9044 0.4237 0.0500
vn -0.8246 -0.3530 0.4420
vn 0.8246 0.3530 -0.4420
# 117 vertex normals

vt 0.3208 0.9526 0.0000
vt 0.3940 0.8582 0.0000
vt 0.4597 0.8989 0.0000
vt 0.4259 0.7274 0.0000
vt 0.5358 0.7441 0.0000
vt 0.3162 0.8492 0.0000
vt 0.3104 0.7254 0.0000
vt 0.2394 0.8652 0.0000
vt 0.1956 0.7380 0.0000
vt 0.1778 0.9119 0.0000
vt 0.0877 0.7653 0.0000
vt 0.1405 0.1691 0.0000
vt 0.2063 0.2096 0.0000
vt 0.1748 0.3405 0.0000
vt 0.0648 0.3240 0.0000
vt 0.2842 0.2184 0.0000
vt 0.2902 0.3422 0.0000
vt 0.3609 0.2021 0.0000
vt 0.4050 0.3294 0.0000
vt 0.4224 0.1553 0.0000
vt 0.5128 0.3018 0.0000
vt 0.4256 0.6985 0.0000
vt 0.5345 0.6754 0.0000
vt 0.3096 0.7088 0.0000
vt 0.1930 0.7094 0.0000
vt 0.0824 0.6972 0.0000
vt 0.1751 0.3693 0.0000
vt 0.0663 0.3926 0.0000
vt 0.2911 0.3587 0.0000
vt 0.4076 0.3580 0.0000
vt 0.5183 0.3699 0.0000
vt 0.3438 0.4902 0.0000
vt 0.3717 0.5302 0.0000
vt 0.3483 0.5728 0.0000
vt 0.3033 0.5898 0.0000
vt 0.2574 0.5774 0.0000
vt 0.2293 0.5374 0.0000
vt 0.2527 0.4949 0.0000
vt 0.2974 0.4777 0.0000
vt 0.4803 0.5842 0.0000
vt 0.3915 0.6422 0.0000
vt 0.3804 0.6085 0.0000
vt 0.4348 0.5497 0.0000
vt 0.3068 0.6615 0.0000
vt 0.3053 0.6305 0.0000
vt 0.2219 0.6504 0.0000
vt 0.2294 0.6160 0.0000
vt 0.1273 0.6013 0.0000
vt 0.1690 0.5628 0.0000
vt 0.1206 0.4838 0.0000
vt 0.2093 0.4255 0.0000
vt 0.2204 0.4592 0.0000
vt 0.1662 0.5181 0.0000
vt 0.2935 0.4060 0.0000
vt 0.2952 0.4370 0.0000
vt 0.3794 0.4171 0.0000
vt 0.3719 0.4516 0.0000
vt 0.4737 0.4659 0.0000
vt 0.4320 0.5046 0.0000
vt 0.7048 0.2909 0.0000
vt 0.7381 0.2562 0.0000
vt 0.8011 0.2901 0.0000
vt 0.7539 0.3359 0.0000
vt 0.9246 0.4936 0.0000
vt 0.8764 0.4934 0.0000
vt 0.8781 0.4265 0.0000
vt 0.9438 0.4241 0.0000
vt 0.8265 0.4992 0.0000
vt 0.8172 0.4329 0.0000
vt 0.7774 0.5069 0.0000
vt 0.7576 0.4432 0.0000
vt 0.7309 0.5201 0.0000
vt 0.6936 0.4591 0.0000
vt 0.5838 0.3766 0.0000
vt 0.6256 0.3526 0.0000
vt 0.6578 0.4111 0.0000
vt 0.6023 0.4463 0.0000
vt 0.6658 0.3225 0.0000
vt 0.7071 0.3751 0.0000
vt 0.8093 0.3226 0.0000
vt 0.7672 0.3563 0.0000
vt 0.8724 0.4027 0.0000
vt 0.9259 0.3954 0.0000
vt 0.8138 0.4090 0.0000
vt 0.7563 0.4189 0.0000
vt 0.7028 0.4270 0.0000
vt 0.6747 0.4289 0.0000
vt 0.6321 0.4621 0.0000
vt 0.7221 0.3941 0.0000
vt 0.5681 0.1255 0.0000
vt 0.6038 0.0976 0.0000
vt 0.6793 0.2040 0.0000
vt 0.6452 0.2337 0.0000
vt 0.9412 0.7023 0.0000
vt 0.8962 0.7076 0.0000
vt 0.8757 0.5762 0.0000
vt 0.9209 0.5729 0.0000
vt 0.8539 0.7121 0.0000
vt 0.8376 0.5805 0.0000
vt 0.8124 0.7186 0.0000
vt 0.8001 0.5862 0.0000
vt 0.7674 0.7247 0.0000
vt 0.7556 0.5948 0.0000
vt 0.4647 0.2044 0.0000
vt 0.5010 0.1772 0.0000
vt 0.5848 0.2805 0.0000
vt 0.5474 0.3059 0.0000
vt 0.5351 0.1522 0.0000
vt 0.6155 0.2577 0.0000
vt 0.8125 0.3306 0.0000
vt 0.7709 0.3633 0.0000
vt 0.8699 0.3952 0.0000
vt 0.9223 0.3875 0.0000
vt 0.8128 0.4016 0.0000
vt 0.7566 0.4110 0.0000
vt 0.7041 0.4185 0.0000
vt 0.6807 0.4341 0.0000
vt 0.6392 0.4671 0.0000
vt 0.7267 0.4000 0.0000
vt 0.2792 0.1150 0.0000
vt 0.6541 0.0472 0.0000
vt 0.6589 0.0468 0.0000
vt 0.6592 0.0515 0.0000
vt 0.6543 0.0517 0.0000
vt 0.9382 0.2340 0.0000
vt 0.9362 0.2383 0.0000
vt 0.9316 0.2355 0.0000
vt 0.9344 0.2315 0.0000
vt 0.8793 0.1988 0.0000
vt 0.8738 0.2074 0.0000
vt 0.8695 0.2161 0.0000
vt 0.8657 0.2242 0.0000
vt 0.8850 0.1910 0.0000
vt 0.8425 0.3366 0.0000
vt 0.8454 0.3402 0.0000
vt 0.8415 0.3431 0.0000
vt 0.8387 0.3396 0.0000
vt 0.6457 0.1080 0.0000
vt 0.6400 0.1090 0.0000
vt 0.6388 0.1044 0.0000
vt 0.6434 0.1030 0.0000
vt 0.6810 0.1233 0.0000
vt 0.6874 0.1178 0.0000
vt 0.6751 0.1303 0.0000
vt 0.6695 0.1381 0.0000
vt 0.6920 0.1112 0.0000
vt 0.6494 0.8076 0.0000
vt 0.5972 0.8098 0.0000
vt 0.5898 0.7581 0.0000
vt 0.5619 0.7139 0.0000
vt 0.6029 0.6817 0.0000
vt 0.6272 0.6354 0.0000
vt 0.6757 0.6548 0.0000
vt 0.7279 0.6527 0.0000
vt 0.7353 0.7044 0.0000
vt 0.7632 0.7485 0.0000
vt 0.7222 0.7808 0.0000
vt 0.6979 0.8271 0.0000
vt 0.6483 0.5664 0.0000
vt 0.6784 0.6557 0.0000
vt 0.6161 0.5849 0.0000
vt 0.5538 0.6557 0.0000
vt 0.5840 0.5663 0.0000
vt 0.4915 0.5477 0.0000
vt 0.5840 0.5292 0.0000
vt 0.5539 0.4398 0.0000
vt 0.6162 0.5107 0.0000
vt 0.6785 0.4399 0.0000
vt 0.6483 0.5292 0.0000
vt 0.7408 0.5479 0.0000
# 170 texture coords

o Cylinder001
g Cylinder001
usemtl wire_086086086
s 1
f 1/1/1 2/2/2 3/3/3 
s 8
f 3/3/3 2/2/2 4/4/4 5/5/5 
f 2/2/2 6/6/6 7/7/7 4/4/4 
f 6/6/6 8/8/8 9/9/9 7/7/7 
f 8/8/8 10/10/10 11/11/11 9/9/9 
f 10/12/10 12/13/12 13/14/13 11/15/11 
f 12/13/12 14/16/14 15/17/15 13/14/13 
f 14/16/14 16/18/16 17/19/17 15/17/15 
f 16/18/16 3/20/3 5/21/5 17/19/17 
f 5/5/5 4/4/4 18/22/18 19/23/19 
f 4/4/4 7/7/7 20/24/20 18/22/18 
f 7/7/7 9/9/9 21/25/21 20/24/20 
f 9/9/9 11/11/11 22/26/22 21/25/21 
f 11/15/11 13/14/13 23/27/23 22/28/22 
f 13/14/13 15/17/15 24/29/24 23/27/23 
f 15/17/15 17/19/17 25/30/25 24/29/24 
f 17/19/17 5/21/5 19/31/19 25/30/25 
s 1
f 26/32/26 27/33/26 28/34/26 29/35/26 30/36/26 31/37/26 32/38/26 33/39/26 
f 34/40/27 35/41/28 36/42/29 37/43/30 
f 35/41/28 38/44/31 39/45/32 36/42/29 
f 38/44/31 40/46/33 41/47/34 39/45/32 
f 40/46/33 42/48/35 43/49/36 41/47/34 
f 42/50/35 44/51/37 45/52/38 43/53/36 
f 44/51/37 46/54/39 47/55/40 45/52/38 
f 46/54/39 48/56/41 49/57/42 47/55/40 
f 48/56/41 34/58/27 37/59/30 49/57/42 
f 37/43/30 36/42/29 28/34/26 27/33/26 
f 36/42/29 39/45/32 29/35/26 28/34/26 
f 39/45/32 41/47/34 30/36/26 29/35/26 
f 41/47/34 43/49/36 31/37/26 30/36/26 
f 43/53/36 45/52/38 32/38/26 31/37/26 
f 45/52/38 47/55/40 33/39/26 32/38/26 
f 47/55/40 49/57/42 26/32/26 33/39/26 
f 49/57/42 37/59/30 27/33/26 26/32/26 
s off
f 50/60/43 51/61/44 52/62/45 53/63/46 
f 51/64/44 54/65/47 55/66/48 52/67/45 
f 54/65/47 56/68/49 57/69/50 55/66/48 
f 56/68/49 58/70/51 59/71/52 57/69/50 
f 58/70/51 60/72/53 61/73/54 59/71/52 
f 60/74/53 62/75/55 63/76/56 61/77/54 
f 62/75/55 64/78/57 65/79/58 63/76/56 
f 64/78/57 50/60/43 53/63/46 65/79/58 
s 1
f 53/63/46 52/62/45 66/80/59 67/81/60 
f 52/67/45 55/66/48 68/82/61 66/83/59 
f 55/66/48 57/69/50 69/84/62 68/82/61 
f 57/69/50 59/71/52 70/85/63 69/84/62 
f 59/71/52 61/73/54 71/86/64 70/85/63 
f 61/77/54 63/76/56 72/87/65 71/88/64 
f 63/76/56 65/79/58 73/89/66 72/87/65 
f 65/79/58 53/63/46 67/81/60 73/89/66 
s 8
f 19/23/19 18/22/18 35/41/28 34/40/27 
f 18/22/18 20/24/20 38/44/31 35/41/28 
f 20/24/20 21/25/21 40/46/33 38/44/31 
f 21/25/21 22/26/22 42/48/35 40/46/33 
f 22/28/22 23/27/23 44/51/37 42/50/35 
f 23/27/23 24/29/24 46/54/39 44/51/37 
f 24/29/24 25/30/25 48/56/41 46/54/39 
f 25/30/25 19/31/19 34/58/27 48/56/41 
s off
f 74/90/67 75/91/68 76/92/69 77/93/70 
f 75/94/68 78/95/71 79/96/72 76/97/69 
f 78/95/71 80/98/73 81/99/74 79/96/72 
f 80/98/73 82/100/75 83/101/76 81/99/74 
f 82/100/75 84/102/77 85/103/78 83/101/76 
f 84/104/77 86/105/79 87/106/80 85/107/78 
f 86/105/79 88/108/81 89/109/81 87/106/80 
f 88/108/81 74/90/67 77/93/70 89/109/81 
f 77/93/70 76/92/69 51/61/44 50/60/43 
f 76/97/69 79/96/72 54/65/47 51/64/44 
f 79/96/72 81/99/74 56/68/49 54/65/47 
f 81/99/74 83/101/76 58/70/51 56/68/49 
f 83/101/76 85/103/78 60/72/53 58/70/51 
f 85/107/78 87/106/80 62/75/55 60/74/53 
f 87/106/80 89/109/81 64/78/57 62/75/55 
f 89/109/81 77/93/70 50/60/43 64/78/57 
f 67/81/60 66/80/59 90/110/82 91/111/83 
f 66/83/59 68/82/61 92/112/84 90/113/82 
f 68/82/61 69/84/62 93/114/85 92/112/84 
f 69/84/62 70/85/63 94/115/86 93/114/85 
f 70/85/63 71/86/64 95/116/87 94/115/86 
f 71/88/64 72/87/65 96/117/88 95/118/87 
f 72/87/65 73/89/66 97/119/89 96/117/88 
f 73/89/66 67/81/60 91/111/83 97/119/89 
s 1
f 8/8/8 6/6/6 1/1/1 
f 16/18/16 14/16/14 1/120/1 
f 1/120/1 14/16/14 12/13/12 
f 10/10/10 8/8/8 1/1/1 
f 1/1/1 6/6/6 2/2/2 
f 3/20/3 16/18/16 1/120/1 
f 1/120/1 12/13/12 10/12/10 
s 2
f 98/121/90 99/122/91 100/123/92 101/124/93 
s 4
f 102/125/94 103/126/95 104/127/96 105/128/97 
s 8
f 98/121/90 106/129/98 107/130/99 99/122/91 
s 16
f 99/122/91 107/130/99 108/131/100 100/123/92 
s 32
f 100/123/92 108/131/100 109/132/101 101/124/93 
s 64
f 101/124/93 109/133/101 106/129/98 98/121/90 
s 8
f 106/129/98 102/125/94 105/128/97 107/130/99 
s off
f 107/130/99 105/128/97 104/127/96 108/131/100 
s 32
f 108/131/100 104/127/96 103/126/95 109/132/101 
s off
f 109/133/101 103/126/95 102/125/94 106/129/98 
s 2
f 110/134/102 111/135/103 112/136/104 113/137/105 
s 4
f 114/138/106 115/139/107 116/140/108 117/141/109 
s 8
f 110/134/102 113/137/105 118/142/110 119/143/111 
s 16
f 113/137/105 112/136/104 120/144/112 118/142/110 
s 32
f 112/136/104 111/135/103 121/145/113 120/144/112 
s 64
f 111/135/103 110/134/102 119/143/111 121/146/113 
s 8
f 119/143/111 118/142/110 115/139/107 114/138/106 
s off
f 118/142/110 120/144/112 116/140/108 115/139/107 
s 32
f 120/144/112 121/145/113 117/141/109 116/140/108 
s off
f 121/146/113 119/143/111 114/138/106 117/141/109 
s 1
f 122/147/114 123/148/115 124/149/114 125/150/115 126/151/114 127/152/115 128/153/114 129/154/115 130/155/114 131/156/115 132/157/114 133/158/115 
f 134/159/116 135/160/117 136/161/116 137/162/117 138/163/116 139/164/117 140/165/116 141/166/117 142/167/116 143/168/117 144/169/116 145/170/117 
# 103 polygons - 8 triangles

