# 3ds Max Wavefront OBJ Exporter v0.99 - (c)2007 guruware
# File Created: 14.12.2024 17:13:05

mtllib wazon z kwiatami01.mtl

#
# object Cylinder001
#

v  -0.0000 0.6060 -0.0000
v  17.1140 0.6060 -16.0173
v  24.2028 0.6060 0.0000
v  23.0747 27.8662 -21.5962
v  32.6326 27.8662 0.0000
v  -0.0000 0.6060 -22.6519
v  -0.0000 27.8662 -30.5416
v  -17.1140 0.6060 -16.0173
v  -23.0747 27.8662 -21.5962
v  -24.2028 0.6060 0.0000
v  -32.6326 27.8662 0.0000
v  -17.1140 0.6060 16.0173
v  -23.0747 27.8662 21.5962
v  0.0000 0.6060 22.6519
v  0.0000 27.8662 30.5416
v  17.1140 0.6060 16.0173
v  23.0747 27.8662 21.5962
v  23.0747 35.1059 -21.5962
v  32.6326 35.1059 0.0000
v  -0.0000 35.1059 -30.5416
v  -23.0747 35.1059 -21.5962
v  -32.6326 35.1059 0.0000
v  -23.0747 35.1059 21.5962
v  0.0000 35.1059 30.5416
v  23.0747 35.1059 21.5962
v  8.1333 51.9849 8.6995
v  11.5023 51.9849 0.0000
v  8.1334 51.9849 -8.6995
v  -0.0390 51.9849 -12.2858
v  -8.0944 51.9849 -8.7168
v  -11.5023 51.9849 0.0000
v  -8.1333 51.9849 8.6995
v  0.0000 51.9849 12.3030
v  25.4061 48.5072 0.0000
v  17.9648 48.5072 -21.5962
v  14.5859 51.9849 -15.6013
v  20.6276 51.9849 0.0000
v  -0.0861 48.5072 -30.4987
v  -0.0699 51.9849 -22.0327
v  -17.8787 48.5072 -21.6390
v  -14.5161 51.9849 -15.6323
v  -25.4061 48.5072 0.0000
v  -20.6276 51.9849 0.0000
v  -17.9648 48.5072 21.5962
v  -14.5859 51.9849 15.6013
v  0.0000 48.5072 30.5416
v  0.0000 51.9849 22.0636
v  17.9648 48.5072 21.5962
v  14.5859 51.9849 15.6013
v  8.5267 85.0308 8.6997
v  12.0585 85.0308 0.0002
v  19.5441 96.8871 0.0002
v  14.0114 96.8871 13.6284
v  8.5267 85.0308 -8.6993
v  14.0062 96.8871 -13.6408
v  -0.0407 85.0308 -12.2856
v  -0.0543 96.8871 -19.5264
v  -8.4856 85.0308 -8.7166
v  -13.9583 96.8871 -13.6503
v  -12.0582 85.0308 0.0002
v  -19.5485 96.8871 -0.0111
v  -8.5264 85.0308 8.6997
v  -14.0111 96.8871 13.6284
v  0.0001 85.0308 12.3032
v  0.0001 96.8871 19.5498
v  13.8017 96.8871 -0.0007
v  9.8945 96.8871 9.6236
v  9.8908 96.8871 -9.6340
v  -0.0387 96.8871 -13.7904
v  -9.8578 96.8871 -9.6407
v  -13.8056 96.8871 -0.0087
v  -9.8951 96.8871 9.6236
v  -0.0003 96.8871 13.8053
v  8.1335 41.6883 8.6997
v  11.5024 41.6883 0.0002
v  9.4464 68.5295 0.0002
v  6.6797 68.5295 8.6997
v  8.1335 41.6883 -8.6993
v  6.6797 68.5295 -8.6993
v  -0.0388 41.6883 -12.2856
v  -0.0319 68.5295 -12.2856
v  -8.0942 41.6883 -8.7166
v  -6.6474 68.5295 -8.7166
v  -11.5022 41.6883 0.0002
v  -9.4462 68.5295 0.0002
v  -8.1332 41.6883 8.6997
v  -6.6794 68.5295 8.6997
v  0.0001 41.6883 12.3032
v  0.0001 68.5295 12.3032
v  13.8017 95.2810 -0.0007
v  9.8945 95.2810 9.6236
v  9.8908 95.2810 -9.6340
v  -0.0387 95.2810 -13.7904
v  -9.8578 95.2810 -9.6407
v  -13.8056 95.2810 -0.0087
v  -9.8951 95.2810 9.6236
v  -0.0003 95.2810 13.8053
v  -0.8821 53.7191 2.4839
v  -2.7494 54.2141 2.4839
v  -2.7494 54.2141 0.5907
v  -0.8821 53.7191 0.5907
v  10.2036 120.7294 2.4839
v  10.2036 120.7294 0.5907
v  8.3364 121.2244 0.5907
v  8.3364 121.2244 2.4839
v  4.8672 108.1375 2.4839
v  3.0000 108.6324 2.4839
v  3.0000 108.6324 0.5907
v  4.8672 108.1375 0.5907
v  4.9527 115.5455 6.1162
v  8.9035 109.3224 11.3380
v  9.0042 113.7068 7.6591
v  6.5642 117.5501 4.4342
v  12.8543 115.5455 6.1162
v  11.4442 117.5501 4.4342
v  21.8650 115.0550 6.5278
v  17.0091 117.2472 4.6884
v  16.8051 120.7876 1.7176
v  13.8842 120.7876 1.7176
v  21.8650 126.5201 -3.0926
v  17.0091 124.3279 -1.2531
v  12.8543 126.0296 -2.6810
v  11.4442 124.0250 -0.9989
v  8.9035 132.2527 -7.9027
v  9.0042 127.8683 -4.2238
v  4.9527 126.0296 -2.6810
v  6.5642 124.0250 -0.9989
v  -4.0580 126.5201 -3.0925
v  0.9993 124.3279 -1.2531
v  1.0018 120.7876 1.7176
v  4.1242 120.7876 1.7176
v  -4.0580 115.0550 6.5278
v  0.9993 117.2472 4.6884
v  10.4367 122.5928 0.2029
v  9.0762 124.7359 -1.5954
v  7.7156 122.5928 0.2029
v  4.6125 122.7617 0.0611
v  6.3550 120.7876 1.7176
v  4.6125 118.8134 3.3742
v  7.7156 118.9823 3.2324
v  9.0762 116.8392 5.0307
v  10.4367 118.9823 3.2324
v  13.5398 118.8134 3.3742
v  11.7973 120.7876 1.7176
v  13.5398 122.7617 0.0611
v  -5.1716 64.4689 2.4839
v  -5.1716 64.4689 0.5907
v  -3.3044 64.9639 0.5907
v  -3.3044 64.9639 2.4839
v  -10.9210 127.8557 2.4839
v  -9.0538 128.3507 2.4839
v  -9.0538 128.3507 0.5907
v  -10.9210 127.8557 0.5907
v  -9.0538 119.3822 2.4839
v  -10.9210 118.8872 2.4839
v  -9.0538 119.3822 0.5907
v  -10.9210 118.8872 0.5907
v  -16.1424 118.7662 10.0655
v  -13.8066 122.1675 6.8771
v  -19.9141 115.6465 3.7502
v  -26.0317 108.2075 5.0024
v  -15.2444 122.1675 -1.2770
v  -18.4705 118.7662 -3.1376
v  -17.3087 121.6535 -10.5006
v  -21.8130 117.9340 -18.0725
v  -11.4241 127.6604 -6.1544
v  -12.2847 127.6604 -11.0351
v  -7.3810 133.6674 -12.2512
v  -5.7380 137.3869 -20.9070
v  -6.1661 133.1534 -2.8777
v  -3.7710 136.5547 -5.7295
v  -0.0586 139.6744 0.2492
v  6.1183 147.1134 -0.6665
v  -4.7283 133.1534 5.2764
v  -1.4429 136.5546 7.4736
v  -2.6640 133.6674 14.5000
v  1.8996 137.3869 22.4085
v  -8.5486 127.6604 10.1538
v  -7.6286 127.6604 15.3711
v  -12.5917 121.6535 16.2505
v  -14.1753 117.9340 25.2430
v  -7.8773 130.7234 -0.8403
v  -8.5548 131.0100 -6.0670
v  -10.8093 127.6604 -2.6674
v  -14.0906 124.3109 -5.0909
v  -12.9395 124.5975 0.0523
v  -15.5434 120.9613 2.8556
v  -12.1378 124.5975 4.5992
v  -11.4604 124.3109 9.8260
v  -9.2058 127.6604 6.4263
v  -5.9245 131.0100 8.8498
v  -7.0756 130.7234 3.7066
v  -4.4717 134.3596 0.9033
# 193 vertices

vn 0.0000 -1.0000 -0.0000
vn 0.4654 -0.7357 -0.4920
vn 0.6777 -0.7353 -0.0000
vn 0.6848 -0.1400 -0.7152
vn 0.9896 -0.1440 0.0000
vn 0.0000 -0.7361 -0.6768
vn 0.0000 -0.1361 -0.9907
vn -0.4654 -0.7357 -0.4920
vn -0.6848 -0.1400 -0.7152
vn -0.6777 -0.7353 -0.0000
vn -0.9896 -0.1440 0.0000
vn -0.4654 -0.7357 0.4920
vn -0.6848 -0.1400 0.7152
vn 0.0000 -0.7361 0.6768
vn -0.0000 -0.1361 0.9907
vn 0.4654 -0.7357 0.4920
vn 0.6848 -0.1400 0.7152
vn 0.7039 0.1314 -0.6980
vn 0.9730 0.2310 -0.0000
vn 0.0008 0.0016 -1.0000
vn -0.7042 0.1327 -0.6975
vn -0.9730 0.2310 -0.0000
vn -0.7039 0.1314 0.6981
vn 0.0000 -0.0000 1.0000
vn 0.7039 0.1314 0.6980
vn 0.0000 1.0000 -0.0000
vn 0.7718 0.6359 -0.0000
vn 0.5766 0.5810 -0.5745
vn 0.2380 0.9528 -0.1885
vn 0.3720 0.9282 -0.0000
vn -0.0029 0.4953 -0.8687
vn -0.0004 0.9703 -0.2418
vn -0.5758 0.5821 -0.5741
vn -0.2377 0.9529 -0.1883
vn -0.7719 0.6358 -0.0012
vn -0.3722 0.9281 -0.0008
vn -0.5777 0.5813 0.5730
vn -0.2382 0.9528 0.1880
vn -0.0000 0.4940 0.8695
vn -0.0000 0.9704 0.2417
vn 0.5777 0.5813 0.5730
vn 0.2382 0.9528 0.1880
vn 0.6755 -0.3315 0.6586
vn 0.9293 -0.3694 0.0000
vn 0.9114 0.4114 -0.0000
vn 0.6516 0.4133 0.6360
vn 0.6744 -0.3317 -0.6597
vn 0.6507 0.4130 -0.6373
vn -0.0017 -0.2899 -0.9570
vn -0.0016 0.4156 -0.9095
vn -0.6745 -0.3310 -0.6599
vn -0.6505 0.4137 -0.6370
vn -0.9292 -0.3696 -0.0015
vn -0.9116 0.4111 -0.0015
vn -0.6755 -0.3315 0.6586
vn -0.6516 0.4133 0.6360
vn -0.0000 -0.2902 0.9570
vn -0.0000 0.4153 0.9097
vn -0.5969 0.8023 -0.0000
vn -0.4233 0.8042 -0.4173
vn -0.4221 0.8046 0.4176
vn 0.0010 0.8056 0.5924
vn 0.4230 0.8037 0.4184
vn 0.5962 0.8028 0.0010
vn 0.4232 0.8042 -0.4172
vn -0.0000 0.8061 -0.5918
vn 0.7293 0.0395 0.6830
vn 0.9971 0.0764 0.0000
vn 0.9992 -0.0412 0.0000
vn 0.7615 -0.0220 0.6478
vn 0.7281 0.0394 -0.6843
vn 0.7601 -0.0220 -0.6494
vn -0.0019 0.0000 -1.0000
vn -0.0019 -0.0000 -1.0000
vn -0.7282 0.0393 -0.6843
vn -0.7606 -0.0219 -0.6488
vn -0.9971 0.0764 -0.0016
vn -0.9991 -0.0412 -0.0014
vn -0.7293 0.0395 0.6830
vn -0.7615 -0.0220 0.6478
vn -0.0000 0.0000 1.0000
vn -1.0000 0.0000 -0.0000
vn -0.7121 0.0000 -0.7021
vn -0.7109 0.0000 0.7033
vn 0.0017 0.0000 1.0000
vn 0.7109 0.0000 0.7033
vn 1.0000 0.0000 0.0017
vn 0.7121 0.0000 -0.7021
vn -0.0000 0.0000 -1.0000
vn 0.4663 -0.6767 0.5697
vn -0.6674 -0.4596 0.5859
vn -0.6674 -0.4596 -0.5859
vn 0.4663 -0.6767 -0.5697
vn 0.7377 0.3613 0.5703
vn 0.7377 0.3613 -0.5703
vn -0.3566 0.7283 -0.5852
vn -0.3567 0.7283 0.5851
vn 0.6493 -0.1679 0.7418
vn -0.7139 0.1846 0.6755
vn -0.7140 0.1846 -0.6754
vn 0.6493 -0.1679 -0.7418
vn 0.0000 0.6428 0.7660
vn -0.0000 0.6428 0.7660
vn 0.5169 0.6608 -0.5442
vn -0.5536 0.7332 -0.3948
vn -0.9977 0.0569 0.0379
vn -0.4932 -0.6375 0.5919
vn -0.4868 0.6988 -0.5241
vn -0.9985 0.0000 -0.0540
vn -0.4662 -0.6768 0.5697
vn -0.4662 -0.6768 -0.5697
vn 0.6674 -0.4597 -0.5859
vn 0.6674 -0.4597 0.5859
vn -0.6386 0.4914 0.5922
vn 0.5032 0.6540 0.5649
vn 0.5032 0.6540 -0.5649
vn -0.6386 0.4914 -0.5922
vn 0.6939 0.0366 0.7191
vn -0.7176 -0.0378 0.6955
vn 0.6939 0.0366 -0.7191
vn -0.7176 -0.0378 -0.6955
vn -0.7544 0.6428 0.1330
vn -0.3323 -0.7200 0.6092
vn -0.1689 0.0188 -0.9854
vn -0.5602 -0.7470 -0.3579
vn -0.5268 -0.6146 0.5872
vn 0.1540 0.0420 0.9872
vn -0.6498 -0.6498 -0.3945
# 128 vertex normals

vt 0.9788 0.2651 0.0000
vt 0.8729 0.3436 0.0000
vt 0.8579 0.2645 0.0000
vt 0.7284 0.3816 0.0000
vt 0.7206 0.2639 0.0000
vt 0.9238 0.4159 0.0000
vt 0.7552 0.5058 0.0000
vt 0.0900 0.4154 0.0000
vt 0.1416 0.3437 0.0000
vt 0.2857 0.3832 0.0000
vt 0.2587 0.5072 0.0000
vt 0.1577 0.2649 0.0000
vt 0.2951 0.2658 0.0000
vt 0.1432 0.1861 0.0000
vt 0.2876 0.1481 0.0000
vt 0.0932 0.1131 0.0000
vt 0.2612 0.0238 0.0000
vt 0.9251 0.1135 0.0000
vt 0.8737 0.1855 0.0000
vt 0.7296 0.1464 0.0000
vt 0.7562 0.0223 0.0000
vt 0.6942 0.3813 0.0000
vt 0.6999 0.2640 0.0000
vt 0.6793 0.5083 0.0000
vt 0.3200 0.3830 0.0000
vt 0.3356 0.5098 0.0000
vt 0.3159 0.2657 0.0000
vt 0.3218 0.1485 0.0000
vt 0.3370 0.0215 0.0000
vt 0.6954 0.1467 0.0000
vt 0.6794 0.0199 0.0000
vt 0.5514 0.2124 0.0000
vt 0.5660 0.2649 0.0000
vt 0.5509 0.3175 0.0000
vt 0.5074 0.3458 0.0000
vt 0.4645 0.3179 0.0000
vt 0.4497 0.2652 0.0000
vt 0.4648 0.2126 0.0000
vt 0.5081 0.1844 0.0000
vt 0.6319 0.2643 0.0000
vt 0.6217 0.3823 0.0000
vt 0.5913 0.3530 0.0000
vt 0.6092 0.2646 0.0000
vt 0.5782 0.4762 0.0000
vt 0.5324 0.4142 0.0000
vt 0.4367 0.4762 0.0000
vt 0.3930 0.3841 0.0000
vt 0.4238 0.3540 0.0000
vt 0.4822 0.4141 0.0000
vt 0.3838 0.2656 0.0000
vt 0.4065 0.2654 0.0000
vt 0.3943 0.1476 0.0000
vt 0.4246 0.1770 0.0000
vt 0.4378 0.0540 0.0000
vt 0.4833 0.1160 0.0000
vt 0.5782 0.0534 0.0000
vt 0.6226 0.1463 0.0000
vt 0.5921 0.1763 0.0000
vt 0.5330 0.1158 0.0000
vt 0.5234 0.7889 0.0000
vt 0.5243 0.8443 0.0000
vt 0.4509 0.8485 0.0000
vt 0.4495 0.7850 0.0000
vt 0.5285 0.8994 0.0000
vt 0.4560 0.9119 0.0000
vt 0.5383 0.9507 0.0000
vt 0.4668 0.9856 0.0000
vt 0.2493 0.9601 0.0000
vt 0.2583 0.9093 0.0000
vt 0.3316 0.9196 0.0000
vt 0.3236 0.9929 0.0000
vt 0.2622 0.8539 0.0000
vt 0.3358 0.8560 0.0000
vt 0.2628 0.7986 0.0000
vt 0.3360 0.7923 0.0000
vt 0.2574 0.7469 0.0000
vt 0.3316 0.7181 0.0000
vt 0.5281 0.7370 0.0000
vt 0.4512 0.7107 0.0000
vt 0.4241 0.8503 0.0000
vt 0.4224 0.7890 0.0000
vt 0.4290 0.9115 0.0000
vt 0.4315 0.9722 0.0000
vt 0.3590 0.9179 0.0000
vt 0.3593 0.9779 0.0000
vt 0.3625 0.8565 0.0000
vt 0.3629 0.7951 0.0000
vt 0.3657 0.7345 0.0000
vt 0.4169 0.7287 0.0000
vt 0.7606 0.7872 0.0000
vt 0.7623 0.8365 0.0000
vt 0.6158 0.8406 0.0000
vt 0.6147 0.7889 0.0000
vt 0.7642 0.8859 0.0000
vt 0.6188 0.8920 0.0000
vt 0.7652 0.9337 0.0000
vt 0.6226 0.9335 0.0000
vt 0.0198 0.9377 0.0000
vt 0.0219 0.8906 0.0000
vt 0.1674 0.9014 0.0000
vt 0.1631 0.9425 0.0000
vt 0.0244 0.8412 0.0000
vt 0.1708 0.8497 0.0000
vt 0.0268 0.7918 0.0000
vt 0.1722 0.7982 0.0000
vt 0.0299 0.7443 0.0000
vt 0.1720 0.7566 0.0000
vt 0.7586 0.7397 0.0000
vt 0.6155 0.7472 0.0000
vt 0.4160 0.8508 0.0000
vt 0.4138 0.7913 0.0000
vt 0.4203 0.9105 0.0000
vt 0.4219 0.9700 0.0000
vt 0.3678 0.9163 0.0000
vt 0.3691 0.9752 0.0000
vt 0.3707 0.8567 0.0000
vt 0.3715 0.7969 0.0000
vt 0.3751 0.7376 0.0000
vt 0.4074 0.7323 0.0000
vt 0.0365 0.2633 0.0000
vt 0.8690 0.5441 0.0000
vt 0.8728 0.5477 0.0000
vt 0.8692 0.5519 0.0000
vt 0.8655 0.5479 0.0000
vt 0.8478 0.9030 0.0000
vt 0.8483 0.8995 0.0000
vt 0.8541 0.8969 0.0000
vt 0.8538 0.9023 0.0000
vt 0.8697 0.8368 0.0000
vt 0.8450 0.8355 0.0000
vt 0.8214 0.8371 0.0000
vt 0.8074 0.8392 0.0000
vt 0.8854 0.8397 0.0000
vt 0.2969 0.6215 0.0000
vt 0.3169 0.6660 0.0000
vt 0.2928 0.6466 0.0000
vt 0.2805 0.6191 0.0000
vt 0.2696 0.6542 0.0000
vt 0.2636 0.6393 0.0000
vt 0.2410 0.6937 0.0000
vt 0.2459 0.6637 0.0000
vt 0.2275 0.6469 0.0000
vt 0.2376 0.6348 0.0000
vt 0.1790 0.6419 0.0000
vt 0.2077 0.6317 0.0000
vt 0.2128 0.6068 0.0000
vt 0.2286 0.6100 0.0000
vt 0.1929 0.5623 0.0000
vt 0.2163 0.5825 0.0000
vt 0.2402 0.5740 0.0000
vt 0.2455 0.5898 0.0000
vt 0.2688 0.5345 0.0000
vt 0.2631 0.5654 0.0000
vt 0.2823 0.5814 0.0000
vt 0.2715 0.5943 0.0000
vt 0.3308 0.5864 0.0000
vt 0.3014 0.5974 0.0000
vt 0.2398 0.6123 0.0000
vt 0.2329 0.5970 0.0000
vt 0.2492 0.6010 0.0000
vt 0.2591 0.5874 0.0000
vt 0.2637 0.6035 0.0000
vt 0.2804 0.6053 0.0000
vt 0.2688 0.6174 0.0000
vt 0.2756 0.6327 0.0000
vt 0.2593 0.6286 0.0000
vt 0.2495 0.6422 0.0000
vt 0.2448 0.6261 0.0000
vt 0.2281 0.6244 0.0000
vt 0.9493 0.9616 0.0000
vt 0.9482 0.9655 0.0000
vt 0.9432 0.9632 0.0000
vt 0.9442 0.9590 0.0000
vt 0.9467 0.6257 0.0000
vt 0.9435 0.6211 0.0000
vt 0.9478 0.6172 0.0000
vt 0.9513 0.6233 0.0000
vt 0.9305 0.6663 0.0000
vt 0.9425 0.6698 0.0000
vt 0.9201 0.6643 0.0000
vt 0.9550 0.6700 0.0000
vt 0.9657 0.6669 0.0000
vt 0.4554 0.5865 0.0000
vt 0.4835 0.5885 0.0000
vt 0.4532 0.6296 0.0000
vt 0.4063 0.6531 0.0000
vt 0.5042 0.6281 0.0000
vt 0.4890 0.6507 0.0000
vt 0.5247 0.6749 0.0000
vt 0.5221 0.7265 0.0000
vt 0.5489 0.6300 0.0000
vt 0.5614 0.6537 0.0000
vt 0.5997 0.6356 0.0000
vt 0.6436 0.6629 0.0000
vt 0.5729 0.5922 0.0000
vt 0.6001 0.5925 0.0000
vt 0.6032 0.5510 0.0000
vt 0.6492 0.5259 0.0000
vt 0.5521 0.5525 0.0000
vt 0.5665 0.5283 0.0000
vt 0.5317 0.5057 0.0000
vt 0.5334 0.4525 0.0000
vt 0.5074 0.5507 0.0000
vt 0.4941 0.5253 0.0000
vt 0.4566 0.5450 0.0000
vt 0.4119 0.5161 0.0000
vt 0.5534 0.5919 0.0000
vt 0.5684 0.6162 0.0000
vt 0.5401 0.6130 0.0000
vt 0.5265 0.6381 0.0000
vt 0.5151 0.6120 0.0000
vt 0.4867 0.6128 0.0000
vt 0.5035 0.5899 0.0000
vt 0.4886 0.5656 0.0000
vt 0.5169 0.5688 0.0000
vt 0.5304 0.5437 0.0000
vt 0.5418 0.5698 0.0000
vt 0.5703 0.5690 0.0000
# 218 texture coords

o Cylinder001
g Cylinder001
usemtl wire_086086086
s 1
f 1/1/1 2/2/2 3/3/3 
s 8
f 3/3/3 2/2/2 4/4/4 5/5/5 
f 2/2/2 6/6/6 7/7/7 4/4/4 
f 6/8/6 8/9/8 9/10/9 7/11/7 
f 8/9/8 10/12/10 11/13/11 9/10/9 
f 10/12/10 12/14/12 13/15/13 11/13/11 
f 12/14/12 14/16/14 15/17/15 13/15/13 
f 14/18/14 16/19/16 17/20/17 15/21/15 
f 16/19/16 3/3/3 5/5/5 17/20/17 
f 5/5/5 4/4/4 18/22/18 19/23/19 
f 4/4/4 7/7/7 20/24/20 18/22/18 
f 7/11/7 9/10/9 21/25/21 20/26/20 
f 9/10/9 11/13/11 22/27/22 21/25/21 
f 11/13/11 13/15/13 23/28/23 22/27/22 
f 13/15/13 15/17/15 24/29/24 23/28/23 
f 15/21/15 17/20/17 25/30/25 24/31/24 
f 17/20/17 5/5/5 19/23/19 25/30/25 
s 1
f 26/32/26 27/33/26 28/34/26 29/35/26 30/36/26 31/37/26 32/38/26 33/39/26 
f 34/40/27 35/41/28 36/42/29 37/43/30 
f 35/41/28 38/44/31 39/45/32 36/42/29 
f 38/46/31 40/47/33 41/48/34 39/49/32 
f 40/47/33 42/50/35 43/51/36 41/48/34 
f 42/50/35 44/52/37 45/53/38 43/51/36 
f 44/52/37 46/54/39 47/55/40 45/53/38 
f 46/56/39 48/57/41 49/58/42 47/59/40 
f 48/57/41 34/40/27 37/43/30 49/58/42 
f 37/43/30 36/42/29 28/34/26 27/33/26 
f 36/42/29 39/45/32 29/35/26 28/34/26 
f 39/49/32 41/48/34 30/36/26 29/35/26 
f 41/48/34 43/51/36 31/37/26 30/36/26 
f 43/51/36 45/53/38 32/38/26 31/37/26 
f 45/53/38 47/55/40 33/39/26 32/38/26 
f 47/59/40 49/58/42 26/32/26 33/39/26 
f 49/58/42 37/43/30 27/33/26 26/32/26 
s off
f 50/60/43 51/61/44 52/62/45 53/63/46 
f 51/61/44 54/64/47 55/65/48 52/62/45 
f 54/64/47 56/66/49 57/67/50 55/65/48 
f 56/68/49 58/69/51 59/70/52 57/71/50 
f 58/69/51 60/72/53 61/73/54 59/70/52 
f 60/72/53 62/74/55 63/75/56 61/73/54 
f 62/74/55 64/76/57 65/77/58 63/75/56 
f 64/78/57 50/60/43 53/63/46 65/79/58 
s 1
f 53/63/46 52/62/45 66/80/59 67/81/60 
f 52/62/45 55/65/48 68/82/61 66/80/59 
f 55/65/48 57/67/50 69/83/62 68/82/61 
f 57/71/50 59/70/52 70/84/63 69/85/62 
f 59/70/52 61/73/54 71/86/64 70/84/63 
f 61/73/54 63/75/56 72/87/65 71/86/64 
f 63/75/56 65/77/58 73/88/66 72/87/65 
f 65/79/58 53/63/46 67/81/60 73/89/66 
s 8
f 19/23/19 18/22/18 35/41/28 34/40/27 
f 18/22/18 20/24/20 38/44/31 35/41/28 
f 20/26/20 21/25/21 40/47/33 38/46/31 
f 21/25/21 22/27/22 42/50/35 40/47/33 
f 22/27/22 23/28/23 44/52/37 42/50/35 
f 23/28/23 24/29/24 46/54/39 44/52/37 
f 24/31/24 25/30/25 48/57/41 46/56/39 
f 25/30/25 19/23/19 34/40/27 48/57/41 
s off
f 74/90/67 75/91/68 76/92/69 77/93/70 
f 75/91/68 78/94/71 79/95/72 76/92/69 
f 78/94/71 80/96/73 81/97/74 79/95/72 
f 80/98/73 82/99/75 83/100/76 81/101/74 
f 82/99/75 84/102/77 85/103/78 83/100/76 
f 84/102/77 86/104/79 87/105/80 85/103/78 
f 86/104/79 88/106/81 89/107/81 87/105/80 
f 88/108/81 74/90/67 77/93/70 89/109/81 
f 77/93/70 76/92/69 51/61/44 50/60/43 
f 76/92/69 79/95/72 54/64/47 51/61/44 
f 79/95/72 81/97/74 56/66/49 54/64/47 
f 81/101/74 83/100/76 58/69/51 56/68/49 
f 83/100/76 85/103/78 60/72/53 58/69/51 
f 85/103/78 87/105/80 62/74/55 60/72/53 
f 87/105/80 89/107/81 64/76/57 62/74/55 
f 89/109/81 77/93/70 50/60/43 64/78/57 
f 67/81/60 66/80/59 90/110/82 91/111/83 
f 66/80/59 68/82/61 92/112/84 90/110/82 
f 68/82/61 69/83/62 93/113/85 92/112/84 
f 69/85/62 70/84/63 94/114/86 93/115/85 
f 70/84/63 71/86/64 95/116/87 94/114/86 
f 71/86/64 72/87/65 96/117/88 95/116/87 
f 72/87/65 73/88/66 97/118/89 96/117/88 
f 73/89/66 67/81/60 91/111/83 97/119/89 
s 1
f 8/9/8 6/8/6 1/120/1 
f 16/19/16 14/18/14 1/1/1 
f 1/120/1 14/16/14 12/14/12 
f 10/12/10 8/9/8 1/120/1 
f 1/1/1 6/6/6 2/2/2 
f 3/3/3 16/19/16 1/1/1 
f 1/120/1 12/14/12 10/12/10 
s 2
f 98/121/90 99/122/91 100/123/92 101/124/93 
s 4
f 102/125/94 103/126/95 104/127/96 105/128/97 
s 8
f 98/121/90 106/129/98 107/130/99 99/122/91 
s 16
f 99/122/91 107/130/99 108/131/100 100/123/92 
s 32
f 100/123/92 108/131/100 109/132/101 101/124/93 
s 64
f 101/124/93 109/133/101 106/129/98 98/121/90 
s 8
f 106/129/98 102/125/94 105/128/97 107/130/99 
s off
f 107/130/99 105/128/97 104/127/96 108/131/100 
s 32
f 108/131/100 104/127/96 103/126/95 109/132/101 
s off
f 109/133/101 103/126/95 102/125/94 106/129/98 
s 1
f 110/134/102 111/135/102 112/136/103 113/137/103 
f 111/135/102 114/138/103 115/139/102 112/136/103 
f 114/138/103 116/140/103 117/141/103 115/139/102 
f 116/140/103 118/142/103 119/143/103 117/141/103 
f 118/142/103 120/144/103 121/145/103 119/143/103 
f 120/144/103 122/146/103 123/147/102 121/145/103 
f 122/146/103 124/148/102 125/149/102 123/147/102 
f 124/148/102 126/150/103 127/151/102 125/149/102 
f 126/150/103 128/152/103 129/153/103 127/151/102 
f 128/152/103 130/154/102 131/155/102 129/153/103 
f 130/154/102 132/156/102 133/157/102 131/155/102 
f 132/156/102 110/134/102 113/137/103 133/157/102 
f 134/158/104 135/159/103 136/160/105 137/161/102 138/162/106 139/163/103 140/164/107 141/165/103 142/166/108 143/167/102 144/168/109 145/169/102 
f 113/137/103 112/136/103 141/165/103 140/164/107 
f 112/136/103 115/139/102 142/166/108 141/165/103 
f 115/139/102 117/141/103 143/167/102 142/166/108 
f 117/141/103 119/143/103 144/168/109 143/167/102 
f 119/143/103 121/145/103 145/169/102 144/168/109 
f 121/145/103 123/147/102 134/158/104 145/169/102 
f 123/147/102 125/149/102 135/159/103 134/158/104 
f 125/149/102 127/151/102 136/160/105 135/159/103 
f 127/151/102 129/153/103 137/161/102 136/160/105 
f 129/153/103 131/155/102 138/162/106 137/161/102 
f 131/155/102 133/157/102 139/163/103 138/162/106 
f 133/157/102 113/137/103 140/164/107 139/163/103 
s 2
f 146/170/110 147/171/111 148/172/112 149/173/113 
s 4
f 150/174/114 151/175/115 152/176/116 153/177/117 
s 8
f 146/170/110 149/173/113 154/178/118 155/179/119 
s 16
f 149/173/113 148/172/112 156/180/120 154/178/118 
s 32
f 148/172/112 147/171/111 157/181/121 156/182/120 
s 64
f 147/171/111 146/170/110 155/179/119 157/181/121 
s 8
f 155/179/119 154/178/118 151/175/115 150/174/114 
s off
f 154/178/118 156/180/120 152/176/116 151/175/115 
s 32
f 156/182/120 157/181/121 153/177/117 152/176/116 
s off
f 157/181/121 155/179/119 150/174/114 153/177/117 
s 1
f 158/183/122 159/184/122 160/185/122 161/186/122 
f 161/186/122 160/185/122 162/187/122 163/188/122 
f 163/188/122 162/187/122 164/189/122 165/190/122 
f 165/190/122 164/189/122 166/191/122 167/192/122 
f 167/192/122 166/191/122 168/193/122 169/194/122 
f 169/194/122 168/193/122 170/195/122 171/196/122 
f 171/196/122 170/195/122 172/197/122 173/198/122 
f 173/198/122 172/197/122 174/199/122 175/200/122 
f 175/200/122 174/199/122 176/201/122 177/202/122 
f 177/202/122 176/201/122 178/203/122 179/204/122 
f 179/204/122 178/203/122 180/205/122 181/206/122 
f 181/206/122 180/205/122 159/184/122 158/183/122 
f 182/207/123 183/208/122 184/209/124 185/210/122 186/211/125 187/212/122 188/213/126 189/214/122 190/215/127 191/216/122 192/217/128 193/218/122 
f 159/184/122 188/213/126 187/212/122 160/185/122 
f 160/185/122 187/212/122 186/211/125 162/187/122 
f 162/187/122 186/211/125 185/210/122 164/189/122 
f 164/189/122 185/210/122 184/209/124 166/191/122 
f 166/191/122 184/209/124 183/208/122 168/193/122 
f 168/193/122 183/208/122 182/207/123 170/195/122 
f 170/195/122 182/207/123 193/218/122 172/197/122 
f 172/197/122 193/218/122 192/217/128 174/199/122 
f 174/199/122 192/217/128 191/216/122 176/201/122 
f 176/201/122 191/216/122 190/215/127 178/203/122 
f 178/203/122 190/215/127 189/214/122 180/205/122 
f 180/205/122 189/214/122 188/213/126 159/184/122 
# 151 polygons - 8 triangles

